<svg width="26" height="26" viewBox="0 0 26 26" fill="none" xmlns="http://www.w3.org/2000/svg">
<path fill-rule="evenodd" clip-rule="evenodd" d="M5.94968 5.93171C5.85015 5.93171 5.769 5.85264 5.769 5.75327C5.769 5.65389 5.85015 5.57482 5.94968 5.57482H7.79309C7.88795 5.57482 7.97144 5.65389 7.97144 5.75327C7.97144 5.85264 7.8879 5.93171 7.79309 5.93171H5.94968ZM5.94968 6.7043C5.85015 6.7043 5.769 6.62294 5.769 6.5258C5.769 6.42642 5.85015 6.34741 5.94968 6.34741H8.93608C9.03561 6.34741 9.11681 6.42647 9.11681 6.5258C9.11681 6.623 9.03561 6.7043 8.93608 6.7043H5.94968ZM5.94968 7.47688C5.85015 7.47688 5.769 7.39553 5.769 7.2961C5.769 7.19901 5.85015 7.11771 5.94968 7.11771H9.93444C10.0317 7.11771 10.1108 7.19906 10.1108 7.2961C10.1108 7.39553 10.0316 7.47688 9.93444 7.47688H5.94968ZM5.94968 8.24718C5.85015 8.24718 5.769 8.16807 5.769 8.06874C5.769 7.96931 5.85015 7.89024 5.94968 7.89024H7.79309C7.88795 7.89024 7.97144 7.96936 7.97144 8.06874C7.97144 8.16812 7.8879 8.24718 7.79309 8.24718H5.94968ZM23.6627 4.00477C23.4839 3.8285 23.2425 3.72009 22.978 3.72009H4.55584C4.29162 3.72009 4.04747 3.8285 3.87146 4.00477C3.6951 4.18093 3.58688 4.42264 3.58688 4.6892V17.9518C3.58688 18.2183 3.6951 18.4624 3.87146 18.6363C4.04747 18.8125 4.29162 18.9232 4.55584 18.9232H22.9779C23.2425 18.9232 23.4839 18.8125 23.6603 18.6386C23.8364 18.4624 23.9449 18.2184 23.9449 17.9519V4.6892C23.9449 4.42264 23.8364 4.18098 23.6627 4.00477ZM22.7658 15.3563V4.888H4.72083V15.3563H22.7658ZM23.1249 4.70956V15.5347C23.1249 15.6341 23.0457 15.7154 22.9466 15.7154H4.54213C4.44295 15.7154 4.36378 15.6341 4.36378 15.5347V4.70956C4.36378 4.61013 4.443 4.53106 4.54213 4.53106H22.9466C23.0457 4.53106 23.1249 4.61018 23.1249 4.70956ZM13.9466 17.7237C13.8991 17.6785 13.8357 17.6515 13.7659 17.6515C13.6957 17.6515 13.6302 17.6785 13.5852 17.7237C13.5397 17.7712 13.5126 17.8344 13.5126 17.9045C13.5126 17.9745 13.5397 18.0378 13.5852 18.083C13.6302 18.1304 13.6957 18.1575 13.7659 18.1575C13.8357 18.1575 13.8991 18.1304 13.9466 18.083C13.9917 18.0378 14.0187 17.9745 14.0187 17.9045C14.0187 17.8343 13.9916 17.7711 13.9466 17.7237ZM13.7659 17.2922C13.9329 17.2922 14.0888 17.3622 14.1994 17.473C14.308 17.5814 14.3781 17.735 14.3781 17.9045C14.3781 18.0739 14.308 18.2252 14.1994 18.3359C14.0888 18.4466 13.9329 18.5166 13.7659 18.5166C13.5986 18.5166 13.4449 18.4466 13.3343 18.3359C13.2237 18.2252 13.1559 18.0739 13.1559 17.9045C13.1559 17.735 13.2237 17.5814 13.332 17.473C13.4449 17.3622 13.5966 17.2922 13.7659 17.2922ZM9.83054 10.7433H8.84553V12.8758H9.83054V10.7433ZM8.66958 10.3842H10.0092C10.1061 10.3842 10.1877 10.4655 10.1877 10.5627V13.0543C10.1877 13.1514 10.1062 13.2328 10.0092 13.2328H8.66958C8.57004 13.2328 8.48884 13.1514 8.48884 13.0543V10.5627C8.48884 10.4655 8.56999 10.3842 8.66958 10.3842ZM12.033 8.2517H11.0504V12.8758H12.033V8.2517ZM10.8696 7.89471H12.2117C12.3109 7.89471 12.39 7.97383 12.39 8.07321V13.0543C12.39 13.1514 12.3109 13.2328 12.2117 13.2328H10.8696C10.7704 13.2328 10.6913 13.1514 10.6913 13.0543V8.07321C10.6913 7.97383 10.7705 7.89471 10.8696 7.89471ZM14.2358 9.54612H13.2532V12.8758H14.2358V9.54612ZM13.0745 9.18694H14.4165C14.5134 9.18694 14.5926 9.26601 14.5926 9.36539V13.0544C14.5926 13.1515 14.5134 13.2328 14.4165 13.2328H13.0745C12.9753 13.2328 12.8938 13.1515 12.8938 13.0544V9.36539C12.8938 9.26596 12.9753 9.18694 13.0745 9.18694ZM16.4383 10.4565H15.4556V12.8758H16.4383V10.4565ZM15.2749 10.0973H16.6167C16.7162 10.0973 16.7974 10.1786 16.7974 10.2757V13.0543C16.7974 13.1514 16.7162 13.2328 16.6167 13.2328H15.2749C15.1778 13.2328 15.0986 13.1514 15.0986 13.0543V10.2757C15.0986 10.1786 15.1778 10.0973 15.2749 10.0973ZM18.6408 8.80288H17.6581V12.8758H18.6408V8.80288ZM17.4798 8.44594H18.8215C18.9211 8.44594 18.9999 8.52729 18.9999 8.62444V13.0543C18.9999 13.1514 18.9211 13.2328 18.8215 13.2328H17.4798C17.3802 13.2328 17.3011 13.1514 17.3011 13.0543V8.62444C17.3011 8.52724 17.3802 8.44594 17.4798 8.44594ZM8.54293 23.7507H7.28934V22.8426C7.28934 22.7432 7.36815 22.6618 7.46768 22.6618H10.6575L11.5473 19.2801H15.9863L16.8764 22.6618H20.0639C20.1612 22.6618 20.2423 22.7432 20.2423 22.8426V23.7507H18.9885V23.0211H8.54293V23.7507ZM2.41216 9.3925C2.41216 9.49188 2.33065 9.57095 2.23346 9.57095C2.13423 9.57095 2.05511 9.49188 2.05511 9.3925V3.70881C2.05511 3.30896 2.21777 2.94303 2.48193 2.67871C2.7465 2.4144 3.11223 2.24951 3.51005 2.24951H6.77635C6.87588 2.24951 6.95708 2.33086 6.95708 2.43024C6.95708 2.52739 6.87588 2.60869 6.77635 2.60869H3.51005C3.20947 2.60869 2.93388 2.73295 2.73513 2.93171C2.53642 3.13052 2.41216 3.40616 2.41216 3.70881V9.3925ZM7.19651 14.046C7.09927 14.046 7.01817 13.967 7.01817 13.8698C7.01817 13.7704 7.09932 13.6891 7.19651 13.6891H20.2897C20.3893 13.6891 20.4705 13.7704 20.4705 13.8698C20.4705 13.967 20.3893 14.046 20.2897 14.046H7.19651Z" fill="#09CE69"/>
</svg>
