<svg width="207" height="207" viewBox="0 0 207 207" fill="none" xmlns="http://www.w3.org/2000/svg">
<path d="M37.8018 133.094C22.1555 133.094 10.35 138.876 10.35 146.558V167.824C10.35 175.505 22.1555 181.287 37.8018 181.287C53.4481 181.287 65.2535 175.505 65.2535 167.824V146.558C65.2535 138.916 53.4481 133.094 37.8018 133.094ZM16.0102 153.269C20.6191 156.544 28.5838 158.646 37.8018 158.646C47.0197 158.646 54.9844 156.544 59.5934 153.269V160.223C56.4803 163.538 48.3943 166.449 37.8018 166.449C27.2092 166.449 19.1637 163.538 16.0102 160.223V153.269ZM37.8018 138.755C51.1031 138.755 59.5934 143.364 59.5934 146.558V149.549C56.4803 152.865 48.3943 155.776 37.8018 155.776C27.2092 155.776 19.1637 152.865 16.0102 149.549V146.558C16.0102 143.404 24.5004 138.755 37.8018 138.755ZM37.8018 175.667C24.5004 175.667 16.0102 171.058 16.0102 167.864V163.902C20.6191 167.177 28.5838 169.279 37.8018 169.279C47.0197 169.279 54.9844 167.177 59.5934 163.902V167.864C59.5934 171.018 51.1031 175.667 37.8018 175.667Z" fill="#ADADAE"/>
<path d="M103.5 111.828C87.8537 111.828 76.0482 117.61 76.0482 125.292V167.824C76.0482 175.505 87.8537 181.287 103.5 181.287C119.146 181.287 130.952 175.505 130.952 167.824V125.292C130.952 117.61 119.146 111.828 103.5 111.828ZM125.292 149.549C122.179 152.865 114.093 155.776 103.5 155.776C92.9074 155.776 84.8619 152.865 81.7084 149.549V142.595C86.3174 145.87 94.282 147.973 103.5 147.973C112.718 147.973 120.683 145.87 125.292 142.595V149.549ZM125.292 138.916C122.179 142.232 114.093 145.143 103.5 145.143C92.9074 145.143 84.8619 142.232 81.7084 138.916V131.962C86.3174 135.237 94.282 137.34 103.5 137.34C112.718 137.34 120.683 135.237 125.292 131.962V138.916ZM81.7084 153.269C86.3174 156.544 94.282 158.646 103.5 158.646C112.718 158.646 120.683 156.544 125.292 153.269V160.223C122.179 163.538 114.093 166.449 103.5 166.449C92.9074 166.449 84.8619 163.538 81.7084 160.223V153.269ZM103.5 117.489C116.801 117.489 125.292 122.098 125.292 125.292V128.283C122.179 131.599 114.093 134.51 103.5 134.51C92.9074 134.51 84.8619 131.599 81.7084 128.283V125.292C81.7084 122.138 90.1986 117.489 103.5 117.489ZM103.5 175.667C90.1986 175.667 81.7084 171.058 81.7084 167.864V163.902C86.3174 167.177 94.282 169.279 103.5 169.279C112.718 169.279 120.683 167.177 125.292 163.902V167.864C125.292 171.018 116.801 175.667 103.5 175.667Z" fill="#ADADAE"/>
<path d="M169.198 90.5625C153.552 90.5625 141.746 96.3439 141.746 104.026V167.824C141.746 175.505 153.552 181.287 169.198 181.287C184.845 181.287 196.65 175.505 196.65 167.824V104.026C196.65 96.3439 184.845 90.5625 169.198 90.5625ZM190.99 149.549C187.877 152.865 179.791 155.776 169.198 155.776C158.606 155.776 150.56 152.865 147.407 149.549V142.596C152.016 145.87 159.98 147.973 169.198 147.973C178.416 147.973 186.381 145.87 190.99 142.596V149.549ZM190.99 138.916C187.877 142.232 179.791 145.143 169.198 145.143C158.606 145.143 150.56 142.232 147.407 138.916V131.962C152.016 135.237 159.98 137.34 169.198 137.34C178.416 137.34 186.381 135.237 190.99 131.962V138.916ZM190.99 128.283C187.877 131.599 179.791 134.51 169.198 134.51C158.606 134.51 150.56 131.599 147.407 128.283V121.329C152.016 124.604 159.98 126.707 169.198 126.707C178.416 126.707 186.381 124.604 190.99 121.329V128.283ZM190.99 117.65C187.877 120.966 179.791 123.877 169.198 123.877C158.606 123.877 150.56 120.966 147.407 117.65V110.696C152.016 113.971 159.98 116.074 169.198 116.074C178.416 116.074 186.381 113.971 190.99 110.696V117.65ZM147.407 153.269C152.016 156.544 159.98 158.646 169.198 158.646C178.416 158.646 186.381 156.544 190.99 153.269V160.223C187.877 163.538 179.791 166.449 169.198 166.449C158.606 166.449 150.56 163.538 147.407 160.223V153.269ZM169.198 96.2227C182.5 96.2227 190.99 100.832 190.99 104.026V107.017C187.877 110.333 179.791 113.244 169.198 113.244C158.606 113.244 150.56 110.333 147.407 107.017V104.026C147.407 100.872 155.897 96.2227 169.198 96.2227ZM169.198 175.667C155.897 175.667 147.407 171.058 147.407 167.864V163.902C152.016 167.177 159.98 169.279 169.198 169.279C178.416 169.279 186.381 167.177 190.99 163.902V167.864C190.99 171.018 182.5 175.667 169.198 175.667Z" fill="#ADADAE"/>
<path d="M37.8018 114.456C43.5428 114.456 48.2326 109.767 48.2326 104.026C48.2326 103.743 48.2326 103.46 48.1922 103.217L95.0502 85.9131C96.9504 88.5006 100.023 90.1986 103.5 90.1986C109.241 90.1986 113.931 85.5088 113.931 79.7678C113.931 78.6357 113.769 77.5846 113.446 76.5738L162.406 44.0279C164.225 45.6047 166.611 46.5346 169.198 46.5346C174.939 46.5346 179.629 41.8447 179.629 36.1037C179.629 30.3627 174.939 25.6729 169.198 25.6729C163.457 25.6729 158.767 30.3627 158.767 36.1037C158.767 37.2357 158.929 38.2869 159.253 39.2977L110.292 71.8436C108.473 70.2668 106.088 69.3369 103.5 69.3369C97.759 69.3369 93.0691 74.0268 93.0691 79.7678C93.0691 80.0508 93.0691 80.3338 93.1096 80.5764L46.2516 97.8803C44.3514 95.2928 41.2787 93.5947 37.8018 93.5947C32.0607 93.5947 27.3709 98.2846 27.3709 104.026C27.3709 109.767 32.0607 114.456 37.8018 114.456ZM169.198 31.333C171.826 31.333 173.969 33.4758 173.969 36.1037C173.969 38.7316 171.826 40.8744 169.198 40.8744C166.57 40.8744 164.428 38.7316 164.428 36.1037C164.428 33.4758 166.57 31.333 169.198 31.333ZM103.5 75.0375C106.128 75.0375 108.271 77.1803 108.271 79.8082C108.271 82.4361 106.128 84.5789 103.5 84.5789C101.479 84.5789 99.74 83.2852 99.0527 81.5063V81.4658C99.0527 81.4658 99.0527 81.4658 99.0527 81.4254C98.8506 80.8998 98.7697 80.3742 98.7697 79.8082C98.7293 77.1803 100.872 75.0375 103.5 75.0375ZM37.8018 99.2549C40.4297 99.2549 42.5725 101.398 42.5725 104.026C42.5725 106.654 40.4297 108.796 37.8018 108.796C35.1738 108.796 33.0311 106.654 33.0311 104.026C33.0311 101.398 35.1738 99.2549 37.8018 99.2549Z" fill="#ADADAE"/>
</svg>
