<svg width="198" height="198" viewBox="0 0 198 198" fill="none" xmlns="http://www.w3.org/2000/svg">
<path d="M41.0662 134.221C56.029 134.221 68.1587 122.091 68.1587 107.129C68.1587 92.1659 56.029 80.0361 41.0662 80.0361C26.1034 80.0361 13.9736 92.1659 13.9736 107.129C13.9736 122.091 26.1034 134.221 41.0662 134.221Z" fill="#909090"/>
<path d="M156.934 134.221C171.897 134.221 184.026 122.091 184.026 107.129C184.026 92.1659 171.897 80.0361 156.934 80.0361C141.971 80.0361 129.841 92.1659 129.841 107.129C129.841 122.091 141.971 134.221 156.934 134.221Z" fill="#909090"/>
<path d="M170.793 79.0828C170.793 80.5429 170.746 82.0185 170.659 83.5018C170.564 85.033 170.415 86.5797 170.225 88.134L163.596 140.992C159.516 173.56 131.825 198 98.9961 198C66.1671 198 38.4758 173.56 34.3961 140.992L27.7909 88.2288C27.7832 88.2365 27.7832 88.2365 27.7832 88.2288L27.7755 88.134C27.5861 86.5791 27.4362 85.0325 27.3415 83.4936C24.9185 43.8076 55.4745 9.52667 95.3108 7.53004C96.4553 7.4667 97.6076 7.44356 98.7676 7.4353H98.9967C134.84 7.4353 163.96 33.5166 169.744 66.8904C170.439 70.8594 170.793 74.9397 170.793 79.0828Z" fill="#282828"/>
<path d="M170.793 79.0828C170.793 80.5429 170.746 82.0185 170.659 83.5018C142.691 83.6516 129.702 61.2557 129.702 61.2557C84.9806 94.9286 27.3487 83.5018 27.3487 83.5018L27.3409 83.4941C24.9185 43.8076 55.4745 9.52667 95.3108 7.53004C96.4553 7.4667 97.6076 7.44356 98.7676 7.4353H98.9967C134.84 7.4353 163.96 33.5166 169.744 66.8904C170.439 70.8594 170.793 74.9397 170.793 79.0828Z" fill="#282828"/>
<path d="M149.611 140.04H51.1596C46.35 140.04 42.4509 136.141 42.4509 131.332V56.5685C42.4509 51.7589 46.35 47.8599 51.1596 47.8599H149.611C154.421 47.8599 158.32 51.7589 158.32 56.5685V131.332C158.32 136.141 154.421 140.04 149.611 140.04Z" fill="black"/>
<path d="M159.128 135.902H41.6417C36.8322 135.902 32.9331 132.003 32.9331 127.194V52.4303C32.9331 47.6208 36.8322 43.7217 41.6417 43.7217H159.128C163.938 43.7217 167.837 47.6208 167.837 52.4303V127.194C167.837 132.003 163.938 135.902 159.128 135.902Z" fill="#171717"/>
<path d="M175.906 60.6162V119.005C175.906 124.48 171.468 128.918 165.993 128.918H34.7761C29.3045 128.918 24.8667 124.48 24.8667 119.005V60.6162C24.8667 55.144 29.3045 50.7068 34.7761 50.7068H165.993C171.469 50.7068 175.906 55.1445 175.906 60.6162Z" fill="white"/>
<path d="M107.483 34.3289H93.2877C88.1003 34.3289 83.8944 38.5342 83.8944 43.7221H116.875C116.875 38.5342 112.67 34.3289 107.483 34.3289Z" fill="white"/>
<path d="M107.132 3.39786V34.3289H93.6364V3.39786C93.6364 1.52075 94.6146 0 95.8175 0H104.955C106.158 0 107.132 1.52075 107.132 3.39786Z" fill="white"/>
<path d="M107.132 29.4565H93.6364V34.3289H107.132V29.4565Z" fill="white"/>
<path opacity="0.5" d="M160.431 50.7068L82.2205 128.918H41.2523L119.463 50.7068H160.431Z" fill="#ADADAE"/>
<path d="M78.2504 161.064C89.7196 172.533 108.281 172.533 119.75 161.064H78.2504Z" fill="white"/>
<path d="M24.8667 60.6162L60.8078 76.8322L24.8667 119.005V60.6162Z" fill="#ADADAE"/>
<path d="M175.906 60.6162L139.965 76.8322L175.906 119.005V60.6162Z" fill="#ADADAE"/>
</svg>
