<svg width="43" height="43" viewBox="0 0 43 43" fill="none" xmlns="http://www.w3.org/2000/svg">
<path d="M12.5417 17.0208L21.5 21.5M12.5417 17.0208V25.9791L21.5 30.4583M12.5417 17.0208L21.5 12.5416L30.4584 17.0208M21.5 21.5L30.4584 17.0208M21.5 21.5V30.4583M21.5 30.4583L30.4584 25.9791V17.0208M14.3334 7.16663H10.75C8.771 7.16663 7.16669 8.77094 7.16669 10.75V14.3333M14.3334 35.8333H10.75C8.771 35.8333 7.16669 34.229 7.16669 32.25V28.6666M28.6667 7.16663H32.25C34.2291 7.16663 35.8334 8.77094 35.8334 10.75V14.3333M28.6667 35.8333H32.25C34.2291 35.8333 35.8334 34.229 35.8334 32.25V28.6666" stroke="#00FF7C" stroke-linecap="round" stroke-linejoin="round"/>
</svg>
