<svg width="43" height="43" viewBox="0 0 43 43" fill="none" xmlns="http://www.w3.org/2000/svg">
<path d="M36.5836 30.5283V10.9347C36.5836 9.57417 35.475 8.46558 34.1145 8.46558H8.88555C7.525 8.46558 6.41641 9.57417 6.41641 10.9347V30.5283H1.76367V32.0736C1.76367 33.4341 2.87227 34.5427 4.23281 34.5427H38.7588C40.1193 34.5427 41.2279 33.4341 41.2279 32.0736V30.5283H36.5836ZM7.59219 10.9347C7.59219 10.2208 8.17168 9.64136 8.88555 9.64136H34.1145C34.8283 9.64136 35.4078 10.2208 35.4078 10.9347V30.5283H34.316V11.8082C34.316 11.1699 33.7953 10.6492 33.157 10.6492H9.84297C9.20469 10.6492 8.68399 11.1699 8.68399 11.8082V30.5199H7.59219V10.9347ZM16.5281 31.7041H26.3123V31.8888C26.3123 32.124 26.1191 32.3171 25.884 32.3171H16.9564C16.7213 32.3171 16.5281 32.124 16.5281 31.8888V31.7041ZM33.7365 30.5283H9.26348V11.8082C9.26348 11.489 9.52383 11.2371 9.83457 11.2371H33.1486C33.4678 11.2371 33.7197 11.4974 33.7197 11.8082V30.5283H33.7365ZM40.0606 32.0652C40.0606 32.7791 39.4811 33.3585 38.7672 33.3585H4.24121C3.52734 33.3585 2.94785 32.7791 2.94785 32.0652V31.6957H6.42481H15.9486V31.8804C15.9486 32.4431 16.4022 32.8966 16.9648 32.8966H25.8924C26.4551 32.8966 26.9086 32.4431 26.9086 31.8804V31.6957H36.592H40.0606V32.0652Z" fill="#00FF7C"/>
<path d="M27.74 16.3097C27.1102 16.3097 26.6062 16.822 26.6062 17.4435C26.6062 17.5947 26.6398 17.7458 26.6902 17.8802L23.3309 22.2726C23.1461 22.1298 22.9109 22.0458 22.659 22.0458C22.0711 22.0458 21.584 22.4993 21.5252 23.0788L16.9145 21.8023C16.7213 21.4495 16.3434 21.206 15.915 21.206C15.2852 21.206 14.7812 21.7183 14.7812 22.3398C14.7812 22.9613 15.2936 23.4736 15.915 23.4736C16.5029 23.4736 16.99 23.02 17.0488 22.4406L21.6596 23.7171C21.8527 24.0698 22.2307 24.3134 22.659 24.3134C23.2889 24.3134 23.7928 23.8011 23.7928 23.1796C23.7928 23.0284 23.7592 22.8773 23.7088 22.7429L27.0682 18.3505C27.2613 18.4933 27.4881 18.5773 27.74 18.5773C28.3699 18.5773 28.8738 18.065 28.8738 17.4435C28.8738 16.822 28.3699 16.3097 27.74 16.3097ZM15.9066 22.8941C15.6043 22.8941 15.3607 22.6505 15.3607 22.3482C15.3607 22.0458 15.6043 21.8023 15.9066 21.8023C16.209 21.8023 16.4525 22.0458 16.4525 22.3482C16.4525 22.6505 16.209 22.8941 15.9066 22.8941ZM22.659 23.7339C22.4238 23.7339 22.2307 23.5911 22.1467 23.3812C22.1215 23.3224 22.1131 23.2552 22.1131 23.1796C22.1131 22.8773 22.3566 22.6337 22.659 22.6337C22.9613 22.6337 23.2049 22.8773 23.2049 23.1796C23.2049 23.482 22.9613 23.7339 22.659 23.7339ZM27.74 17.9894C27.4377 17.9894 27.1941 17.7458 27.1941 17.4435C27.1941 17.1411 27.4377 16.8976 27.74 16.8976C28.0424 16.8976 28.2859 17.1411 28.2859 17.4435C28.2859 17.7458 28.0424 17.9894 27.74 17.9894Z" fill="#00FF7C"/>
</svg>
