<svg width="26" height="26" viewBox="0 0 26 26" fill="none" xmlns="http://www.w3.org/2000/svg">
<g clip-path="url(#clip0_9_457)">
<path d="M11.4678 2.27572C12.2695 1.47411 13.5429 1.43192 14.3941 2.14915L14.5319 2.27572L16.5897 4.3335H19.4999C20.6421 4.3335 21.5779 5.21736 21.6606 6.33846L21.6666 6.50016V9.41029L23.7243 11.4681C24.526 12.2697 24.5682 13.5431 23.8509 14.3944L23.7243 14.5323L21.6666 16.5901V19.5002C21.6666 20.6424 20.7827 21.5782 19.6616 21.6609L19.4999 21.6669H16.5897L14.5319 23.7246C13.7304 24.5262 12.457 24.5684 11.6057 23.8511L11.4678 23.7246L9.41007 21.6669H6.4999C5.35767 21.6669 4.42189 20.7829 4.33918 19.6619L4.33323 19.5002V16.59L2.27546 14.5323C1.47387 13.7306 1.43168 12.4572 2.1489 11.6059L2.27547 11.4681L4.33323 9.41033V6.50016C4.33323 5.35794 5.2171 4.42215 6.3382 4.33944L6.4999 4.3335H9.41007L11.4678 2.27572ZM12.9999 3.80778L10.9421 5.86556C10.5809 6.22675 10.1054 6.44724 9.60057 6.49178L9.41007 6.50016H6.4999V9.41033C6.4999 9.92113 6.31954 10.4133 5.99407 10.8018L5.86529 10.9424L3.80753 13.0002L5.86529 15.0579C6.22648 15.4191 6.44697 15.8947 6.49151 16.3995L6.4999 16.59V19.5002H9.41007C9.92086 19.5002 10.413 19.6806 10.8015 20.006L10.9421 20.1347L12.9999 22.1925L15.0577 20.1347C15.4189 19.7736 15.8945 19.5531 16.3992 19.5086L16.5897 19.5002H19.4999V16.5901C19.4999 16.0792 19.6802 15.587 20.0057 15.1986L20.1345 15.058L22.1923 13.0002L20.1345 10.9423C19.7733 10.5812 19.5528 10.1056 19.5083 9.6008L19.4999 9.41029V6.50016H16.5897C16.079 6.50016 15.5868 6.3198 15.1983 5.99434L15.0577 5.86556L12.9999 3.80778ZM16.3359 9.73127C16.7589 9.30821 17.4449 9.30821 17.868 9.73127C18.2586 10.1218 18.2886 10.7363 17.9581 11.1613L17.868 11.2633L12.5803 16.5511C12.1482 16.9831 11.4667 17.014 10.999 16.6436L10.8951 16.5511L8.29053 13.9465C7.86747 13.5235 7.86747 12.8375 8.29053 12.4145C8.68105 12.024 9.29555 11.9939 9.72053 12.3243L9.82259 12.4145L11.7377 14.3295L16.3359 9.73127Z" fill="#09CE69"/>
</g>
<defs>
<clipPath id="clip0_9_457">
<rect width="26" height="26" fill="white"/>
</clipPath>
</defs>
</svg>
