<svg width="26" height="26" viewBox="0 0 26 26" fill="none" xmlns="http://www.w3.org/2000/svg">
<g clip-path="url(#clip0_9_453)">
<path d="M20.5833 18.4167C19.3916 18.4167 18.4166 17.4417 18.4166 16.25V15.1667C18.4166 13.975 19.3916 13 20.5833 13C21.775 13 22.75 13.975 22.75 15.1667V16.25C22.75 17.4417 21.775 18.4167 20.5833 18.4167ZM18.4166 25.9924L22.75 26C23.3458 26 23.8333 25.5125 23.8333 24.9167V22.75C23.8333 20.9625 22.3708 19.5 20.5833 19.5C18.7958 19.5 17.3333 20.9625 17.3333 22.75V24.9167C17.3333 25.5147 17.8186 25.9924 18.4166 25.9924Z" fill="#09CE69"/>
<path d="M21.6667 2.16667V9.75C21.6667 10.3458 21.1792 10.8333 20.5834 10.8333C19.9875 10.8333 19.5 10.3458 19.5 9.75V2.70833C19.5 2.405 19.2617 2.16667 18.9584 2.16667H4.87502C4.57169 2.16667 4.33335 2.405 4.33335 2.70833V23.2917C4.33335 23.595 4.57169 23.8333 4.87502 23.8333H14.0834C14.6792 23.8333 15.1667 24.3208 15.1667 24.9167C15.1667 25.5125 14.6792 26 14.0834 26H4.33335C3.14169 26 2.16669 25.025 2.16669 23.8333V2.16667C2.16669 0.975 3.14169 0 4.33335 0H19.5C20.6917 0 21.6667 0.975 21.6667 2.16667Z" fill="#09CE69"/>
<path d="M11.5992 4.65086C11.1767 4.22836 10.491 4.22836 10.0674 4.65086L8.66665 6.05161L8.34924 5.73419C7.92674 5.31169 7.24099 5.31169 6.8174 5.73419C6.39382 6.15669 6.3949 6.84244 6.8174 7.26603L7.90074 8.34936C8.11199 8.56061 8.38824 8.66678 8.66665 8.66678C8.94507 8.66678 9.22132 8.56061 9.43257 8.34936L11.5992 6.18269C12.0217 5.76019 12.0217 5.07444 11.5992 4.65086ZM11.5992 11.1509C11.1767 10.7284 10.491 10.7284 10.0674 11.1509L8.66665 12.5516L8.34924 12.2342C7.92674 11.8117 7.24099 11.8117 6.8174 12.2342C6.39382 12.6567 6.3949 13.3424 6.8174 13.766L7.90074 14.8494C8.11199 15.0606 8.38824 15.1668 8.66665 15.1668C8.94507 15.1668 9.22132 15.0606 9.43257 14.8494L11.5992 12.6827C12.0217 12.2602 12.0217 11.5744 11.5992 11.1509ZM11.5992 17.6509C11.1767 17.2284 10.491 17.2284 10.0674 17.6509L8.66665 19.0516L8.34924 18.7342C7.92674 18.3117 7.24099 18.3117 6.8174 18.7342C6.39382 19.1567 6.3949 19.8424 6.8174 20.266L7.90074 21.3494C8.11199 21.5606 8.38824 21.6668 8.66665 21.6668C8.94507 21.6668 9.22132 21.5606 9.43257 21.3494L11.5992 19.1827C12.0217 18.7602 12.0217 18.0744 11.5992 17.6509Z" fill="#09CE69"/>
</g>
<defs>
<clipPath id="clip0_9_453">
<rect width="26" height="26" fill="white"/>
</clipPath>
</defs>
</svg>
