<svg width="26" height="26" viewBox="0 0 26 26" fill="none" xmlns="http://www.w3.org/2000/svg">
<g clip-path="url(#clip0_6_205)">
<path d="M19.1458 6.0731C17.097 5.10942 15.0491 4.14381 13.0022 3.17627L0.149506 9.23427L2.34867 10.2959L2.16667 10.3252V21.6666H3.25001V11.2384L4.03001 11.1041L4.33334 11.2504V16.979C4.33334 17.9692 9.97317 20.8064 11.1031 21.3654C11.6905 21.6538 12.337 21.8013 12.9914 21.7965C13.6458 21.7916 14.29 21.6344 14.8731 21.3373C21.6667 17.8598 21.6667 17.2195 21.6667 16.979V11.2504L25.8418 9.2386C25.8418 9.2386 21.7252 7.28752 19.1458 6.0731ZM20.5833 16.7959C18.5943 18.1199 16.5223 19.3147 14.3802 20.3731C13.9477 20.5938 13.4697 20.7107 12.9841 20.7145C12.4986 20.7182 12.0189 20.6088 11.583 20.3948C9.43311 19.3719 7.37075 18.1744 5.41667 16.8144V11.7714L13 15.4255L20.5833 11.7714V16.7959ZM13 14.2252L5.86734 10.7878L12.8754 9.57985L12.6913 8.5106L4.18709 9.97744L2.66717 9.2451L12.9989 4.37552C13.8927 4.80127 22.2322 8.72402 23.3361 9.24402L13 14.2252Z" fill="#09CE69"/>
</g>
<defs>
<clipPath id="clip0_6_205">
<rect width="26" height="26" fill="white"/>
</clipPath>
</defs>
</svg>
