<svg width="43" height="43" viewBox="0 0 43 43" fill="none" xmlns="http://www.w3.org/2000/svg">
<g clip-path="url(#clip0_4_188)">
<path d="M21.5 37.056C23.1131 37.056 24.4255 35.7437 24.4255 34.1306C24.4255 32.5175 23.1131 31.2051 21.5 31.2051C19.8869 31.2051 18.5745 32.5175 18.5745 34.1306C18.5745 35.7437 19.8869 37.056 21.5 37.056ZM21.5 32.5982C22.345 32.5982 23.0324 33.2856 23.0324 34.1306C23.0324 34.9755 22.345 35.663 21.5 35.663C20.6551 35.663 19.9676 34.9755 19.9676 34.1306C19.9676 33.2856 20.6551 32.5982 21.5 32.5982Z" fill="#00FF7C"/>
<path d="M37.1026 9.56587C37.4874 9.56587 37.7991 9.25401 37.7991 8.86933V1.43952C37.7991 0.645743 37.1534 0 36.3596 0H33.3877C32.5939 0 31.9482 0.645743 31.9482 1.43952V1.63428C31.7032 1.5389 31.4371 1.48596 31.1588 1.48596C30.8804 1.48596 30.6143 1.5389 30.3693 1.63428V1.43952C30.3693 0.645743 29.7236 0 28.9298 0H20.757C20.3723 0 20.0605 0.311866 20.0605 0.696544V0.742981H16.7513C15.655 0.742981 14.7132 1.4906 14.317 2.55056L7.70629 16.5436C7.70332 16.5499 7.70118 16.5563 7.6984 16.5626C7.52649 16.9349 7.42981 17.3488 7.42981 17.7851C7.42981 18.488 7.67908 19.1336 8.09366 19.6386L8.20502 19.8019C8.08567 20.1289 7.36768 22.2659 7.88247 25.0624C8.75529 29.8042 12.4813 32.8123 15.6026 34.5445V36.406H8.86933C7.66589 36.406 6.68683 37.3851 6.68683 38.5886V41.6069H5.89741C5.51264 41.6069 5.20087 41.9188 5.20087 42.3035C5.20087 42.6881 5.51264 43 5.89741 43H37.1026C37.4874 43 37.7991 42.6881 37.7991 42.3035C37.7991 41.9188 37.4874 41.6069 37.1026 41.6069H36.3132V38.5886C36.3132 37.3851 35.3341 36.406 34.1307 36.406H27.3974V34.1307C27.3974 30.8788 24.7518 28.2333 21.5 28.2333C21.3431 28.2333 21.1881 28.2412 21.0343 28.2533L13.4972 17.1989L16.8112 6.59395H20.0605V6.64039C20.0605 7.02507 20.3723 7.33693 20.757 7.33693H28.9298C29.7236 7.33693 30.3693 6.69119 30.3693 5.89741V5.70265C30.6143 5.79803 30.8804 5.85097 31.1588 5.85097C31.4371 5.85097 31.7032 5.79803 31.9482 5.70265V8.86933C31.9482 9.25401 32.2599 9.56587 32.6447 9.56587H32.6911V11.1447H32.6447C32.2599 11.1447 31.9482 11.4566 31.9482 11.8413V14.8132C31.9482 15.1979 32.2599 15.5097 32.6447 15.5097H32.8438L33.4549 17.954C33.5325 18.2641 33.8111 18.4816 34.1307 18.4816H34.1771V21.0927C33.7882 21.329 33.527 21.7556 33.527 22.243C33.527 22.9855 34.1311 23.5896 34.8737 23.5896C35.6162 23.5896 36.2203 22.9855 36.2203 22.243C36.2203 21.7556 35.9591 21.3291 35.5702 21.0927V18.4816H35.6166C35.9362 18.4816 36.2148 18.2641 36.2924 17.954L36.9035 15.5097H37.1026C37.4874 15.5097 37.7991 15.1979 37.7991 14.8132V11.8413C37.7991 11.4566 37.4874 11.1447 37.1026 11.1447H37.0562V9.56587H37.1026ZM33.3413 1.43952C33.3413 1.41389 33.3622 1.39309 33.3877 1.39309H36.3596C36.3852 1.39309 36.4061 1.41389 36.4061 1.43952V8.17279H33.3413V1.43952ZM15.4679 6.22209L12.4814 15.7788C11.9477 15.2135 11.1923 14.8596 10.3553 14.8596C10.2467 14.8596 10.1396 14.866 10.034 14.8776L14.5618 5.29364C14.7932 5.67684 15.1041 5.99576 15.4679 6.22209ZM8.8229 17.7851C8.8229 16.9401 9.51034 16.2527 10.3553 16.2527C11.1995 16.2527 11.8864 16.9389 11.8876 17.783C11.8876 17.7842 11.8876 17.7854 11.8876 17.7866C11.8868 18.6309 11.1997 19.3175 10.3553 19.3175C9.51034 19.3175 8.8229 18.6301 8.8229 17.7851ZM9.26562 24.8795C8.98737 23.4273 9.09594 22.1664 9.24779 21.3312L16.2057 31.536C15.9801 31.9945 15.8127 32.4863 15.7123 33.0019C12.052 30.8362 9.88415 28.1077 9.26562 24.8795ZM34.1307 37.7991C34.566 37.7991 34.9201 38.1533 34.9201 38.5886V41.6069H8.07992V38.5886C8.07992 38.1533 8.43404 37.7991 8.86933 37.7991H15.6026V39.3315C15.6026 39.7162 15.9144 40.0281 16.2991 40.0281H26.7009C27.0856 40.0281 27.3974 39.7162 27.3974 39.3315V37.7991H34.1307ZM26.0043 34.1307V38.635H16.9957V34.1307C16.9957 31.647 19.0163 29.6263 21.5 29.6263C23.9837 29.6263 26.0043 31.647 26.0043 34.1307ZM17.0369 30.2824L10.508 20.7066C11.6305 20.6486 12.587 19.9546 13.025 18.9792L19.5593 28.5629C18.5732 28.9076 17.7063 29.5071 17.0369 30.2824ZM16.7513 5.20086C16.0667 5.20086 15.5097 4.51342 15.5097 3.66847C15.5097 2.82351 16.0667 2.13607 16.7513 2.13607H20.0605V2.97192H17.0421C16.6573 2.97192 16.3456 3.28379 16.3456 3.66847C16.3456 4.05314 16.6573 4.36501 17.0421 4.36501H20.0605V5.20086H16.7513ZM28.9762 5.89741C28.9762 5.92304 28.9553 5.94384 28.9298 5.94384H21.4536V5.89741V1.43952V1.39309H28.9298C28.9553 1.39309 28.9762 1.41389 28.9762 1.43952V5.89741ZM31.1588 4.45788C30.7235 4.45788 30.3693 4.10376 30.3693 3.66847C30.3693 3.23317 30.7235 2.87905 31.1588 2.87905C31.594 2.87905 31.9482 3.23317 31.9482 3.66847C31.9482 4.10376 31.594 4.45788 31.1588 4.45788ZM36.4061 12.5378V14.1166H36.3596H33.3877H33.3413V12.5378H36.4061ZM35.0729 17.0886H34.6745L34.2798 15.5097H35.4676L35.0729 17.0886ZM35.6631 11.1447H34.0842V9.56587H35.6631V11.1447Z" fill="#00FF7C"/>
</g>
<defs>
<clipPath id="clip0_4_188">
<rect width="43" height="43" fill="white"/>
</clipPath>
</defs>
</svg>
