<svg width="217" height="217" viewBox="0 0 217 217" fill="none" xmlns="http://www.w3.org/2000/svg">
<g clip-path="url(#clip0_56_2)">
<path d="M183.094 162.75C180.072 162.765 177.092 163.463 174.377 164.79L145.214 135.625H122.062V149.188H139.598L164.788 174.378C163.463 177.094 162.766 180.072 162.75 183.094C162.75 187.117 163.943 191.051 166.179 194.396C168.414 197.742 171.591 200.349 175.309 201.889C179.026 203.429 183.116 203.832 187.063 203.047C191.009 202.262 194.634 200.324 197.479 197.479C200.324 194.634 202.262 191.009 203.047 187.063C203.832 183.116 203.429 179.026 201.889 175.309C200.349 171.591 197.742 168.414 194.396 166.179C191.051 163.943 187.117 162.75 183.094 162.75ZM183.094 189.875C181.753 189.875 180.441 189.477 179.326 188.732C178.211 187.987 177.342 186.928 176.829 185.689C176.315 184.45 176.181 183.086 176.443 181.771C176.704 180.455 177.35 179.247 178.299 178.299C179.247 177.35 180.455 176.704 181.771 176.443C183.086 176.181 184.45 176.315 185.689 176.829C186.928 177.342 187.987 178.211 188.732 179.326C189.477 180.441 189.875 181.753 189.875 183.094C189.873 184.892 189.158 186.616 187.887 187.887C186.616 189.158 184.892 189.873 183.094 189.875Z" fill="#ADADAE"/>
<path d="M183.094 88.1563C178.9 88.169 174.814 89.4795 171.395 91.9078C167.976 94.3362 165.393 97.7634 164 101.719H122.062V115.281H164C165.249 118.788 167.439 121.883 170.328 124.23C173.218 126.576 176.697 128.083 180.386 128.586C184.074 129.089 187.83 128.568 191.242 127.081C194.655 125.594 197.593 123.197 199.735 120.154C201.878 117.11 203.143 113.535 203.392 109.821C203.64 106.107 202.863 102.396 201.146 99.0937C199.428 95.7912 196.836 93.0244 193.652 91.0955C190.469 89.1666 186.816 88.1498 183.094 88.1563ZM183.094 115.281C181.753 115.281 180.441 114.884 179.326 114.138C178.211 113.393 177.342 112.334 176.829 111.095C176.315 109.856 176.181 108.493 176.443 107.177C176.704 105.862 177.35 104.653 178.299 103.705C179.247 102.757 180.455 102.111 181.771 101.849C183.086 101.587 184.45 101.722 185.689 102.235C186.928 102.748 187.987 103.617 188.732 104.733C189.477 105.848 189.875 107.159 189.875 108.5C189.873 110.298 189.158 112.022 187.887 113.293C186.616 114.565 184.892 115.28 183.094 115.281Z" fill="#ADADAE"/>
<path d="M183.094 13.5625C177.7 13.5684 172.529 15.7137 168.715 19.5276C164.901 23.3415 162.756 28.5126 162.75 33.9063C162.773 37.1549 163.583 40.3496 165.111 43.2169L139.665 67.8125H122.062V81.375H145.148L174.978 52.5384C177.749 53.7463 180.755 54.3212 183.776 54.2212C186.797 54.1213 189.758 53.3489 192.444 51.9604C195.129 50.572 197.471 48.6023 199.299 46.1947C201.127 43.7871 202.395 41.0023 203.011 38.0428C203.628 35.0833 203.576 32.0237 202.861 29.0865C202.146 26.1494 200.785 23.4086 198.877 21.0638C196.969 18.7189 194.563 16.8289 191.832 15.5312C189.102 14.2336 186.117 13.5611 183.094 13.5625ZM183.094 40.6875C181.753 40.6875 180.441 40.2898 179.326 39.5447C178.211 38.7995 177.342 37.7404 176.829 36.5013C176.315 35.2622 176.181 33.8987 176.443 32.5833C176.704 31.2679 177.35 30.0596 178.299 29.1112C179.247 28.1628 180.455 27.517 181.771 27.2553C183.086 26.9936 184.45 27.1279 185.689 27.6412C186.928 28.1544 187.987 29.0236 188.732 30.1388C189.477 31.254 189.875 32.565 189.875 33.9063C189.873 35.7043 189.158 37.4282 187.887 38.6995C186.616 39.9709 184.892 40.6859 183.094 40.6875Z" fill="#ADADAE"/>
<path d="M122.062 40.6875H135.625V27.125H122.062C118.198 27.138 114.381 27.9817 110.871 29.599C107.361 31.2163 104.24 33.5694 101.719 36.4987C99.1978 33.5694 96.0765 31.2163 92.5665 29.599C89.0564 27.9817 85.2397 27.138 81.375 27.125H74.5938C58.4128 27.1429 42.8997 33.5788 31.458 45.0205C20.0163 56.4622 13.5804 71.9753 13.5625 88.1562V128.844C13.5804 145.025 20.0163 160.538 31.458 171.98C42.8997 183.421 58.4128 189.857 74.5938 189.875H81.375C85.2397 189.862 89.0564 189.018 92.5665 187.401C96.0765 185.784 99.1978 183.431 101.719 180.501C104.24 183.431 107.361 185.784 110.871 187.401C114.381 189.018 118.198 189.862 122.062 189.875H135.625V176.312H122.062C118.467 176.308 115.019 174.878 112.477 172.336C109.934 169.793 108.504 166.346 108.5 162.75V54.25C108.504 50.6543 109.934 47.207 112.477 44.6644C115.019 42.1219 118.467 40.6916 122.062 40.6875ZM81.375 176.312H74.5938C63.1906 176.293 52.1751 172.171 43.5595 164.701C34.9438 157.231 29.3031 146.91 27.6675 135.625H40.6875V122.062H27.125V94.9375H47.4688C52.8624 94.9316 58.0335 92.7863 61.8474 88.9724C65.6613 85.1585 67.8066 79.9874 67.8125 74.5938V61.0312H54.25V74.5938C54.2484 76.3918 53.5334 78.1157 52.262 79.387C50.9907 80.6584 49.2668 81.3734 47.4688 81.375H27.6675C29.3031 70.0897 34.9438 59.7694 43.5595 52.2992C52.1751 44.829 63.1906 40.7075 74.5938 40.6875H81.375C84.9707 40.6916 88.418 42.1219 90.9606 44.6644C93.5031 47.207 94.9334 50.6543 94.9375 54.25V81.375H81.375V94.9375H94.9375V122.062H81.375C75.9813 122.068 70.8102 124.214 66.9963 128.028C63.1824 131.841 61.0372 137.013 61.0312 142.406V155.969H74.5938V142.406C74.5954 140.608 75.3103 138.884 76.5817 137.613C77.8531 136.342 79.577 135.627 81.375 135.625H94.9375V162.75C94.9334 166.346 93.5031 169.793 90.9606 172.336C88.418 174.878 84.9707 176.308 81.375 176.312Z" fill="#ADADAE"/>
</g>
<defs>
<clipPath id="clip0_56_2">
<rect width="217" height="217" fill="white"/>
</clipPath>
</defs>
</svg>
