<svg width="43" height="43" viewBox="0 0 43 43" fill="none" xmlns="http://www.w3.org/2000/svg">
<g clip-path="url(#clip0_4_133)">
<path d="M16.125 40.7962C14.1497 40.7962 12.2926 39.7669 11.2163 38.094C7.66339 37.9475 4.89124 35.0799 4.89124 31.5781C4.89124 30.3701 5.22986 29.1983 5.8762 28.1596C3.59855 26.7231 2.20374 24.2157 2.20374 21.5C2.20374 18.7843 3.59855 16.2782 5.8762 14.839C5.2312 13.8016 4.89124 12.6312 4.89124 11.4219C4.89124 7.8878 7.71445 5.00008 11.223 4.89392C12.302 3.22767 14.155 2.20374 16.125 2.20374C19.3554 2.20374 21.9837 4.83211 21.9837 8.06249V14.2975H33.5937C34.8085 14.2975 35.7975 13.3085 35.7975 12.0937V9.82549C35.0248 9.61317 34.4537 8.90367 34.4537 8.06249C34.4537 7.05467 35.2734 6.23499 36.2812 6.23499C37.289 6.23499 38.1087 7.05467 38.1087 8.06249C38.1087 8.90233 37.5376 9.61183 36.765 9.82549V12.0937C36.765 13.842 35.342 15.265 33.5937 15.265H21.9837V18.3287H37.2071C37.4194 17.5547 38.1302 16.985 38.9701 16.985C39.9779 16.985 40.7976 17.8047 40.7976 18.8125C40.7976 19.8203 39.9779 20.64 38.9701 20.64C38.1302 20.64 37.4207 20.0702 37.2071 19.2962H21.9837V23.7037H37.2071C37.4194 22.9311 38.1302 22.36 38.9701 22.36C39.9779 22.36 40.7976 23.1797 40.7976 24.1875C40.7976 25.1953 39.9779 26.015 38.9701 26.015C38.1302 26.015 37.4207 25.4439 37.2071 24.6712H21.9837V27.7336H33.5937C35.3433 27.7336 36.765 29.1567 36.765 30.9049V33.1731C37.5376 33.3855 38.1087 34.0963 38.1087 34.9361C38.1087 35.944 37.289 36.7636 36.2812 36.7636C35.2734 36.7636 34.4537 35.944 34.4537 34.9361C34.4537 34.0963 35.0248 33.3868 35.7975 33.1731V30.9062C35.7975 29.6915 34.8098 28.7025 33.5937 28.7025H21.9837V34.9375C21.9837 38.1679 19.3554 40.7962 16.125 40.7962ZM11.7188 37.1251L11.911 37.375C12.8005 38.911 14.3768 39.8287 16.125 39.8287C18.8219 39.8287 21.0162 37.6344 21.0162 34.9375V8.06249C21.0162 5.36558 18.8219 3.17124 16.125 3.17124C14.3768 3.17124 12.8005 4.08902 11.9096 5.62492L11.7538 5.86545C11.4125 6.5427 11.2337 7.29789 11.2337 8.06249C11.2337 8.92249 11.4595 9.7677 11.8881 10.5081L11.051 10.9919C10.5377 10.1063 10.2662 9.0918 10.2662 8.06249C10.2662 7.32745 10.4046 6.60049 10.6694 5.92189C7.92945 6.30755 5.85874 8.62686 5.85874 11.4219C5.85874 12.599 6.23902 13.7358 6.95658 14.7087L7.28714 15.1561L6.79802 15.4209C4.56067 16.6316 3.17124 18.9603 3.17124 21.5C3.17124 23.8986 4.41017 26.109 6.43252 27.3655C7.67683 25.8914 9.4882 25.0475 11.4219 25.0475V26.0163C9.8013 26.0163 8.28286 26.711 7.22264 27.9298L6.95658 28.2926C6.23902 29.2642 5.85874 30.401 5.85874 31.5781C5.85874 34.6459 8.35408 37.1412 11.4219 37.1412L11.7188 37.1251ZM36.2812 34.0775C35.8069 34.0775 35.4212 34.4631 35.4212 34.9375C35.4212 35.4118 35.8069 35.7975 36.2812 35.7975C36.7556 35.7975 37.1412 35.4118 37.1412 34.9375C37.1412 34.4631 36.7556 34.0775 36.2812 34.0775ZM38.9687 23.3275C38.4944 23.3275 38.1087 23.7131 38.1087 24.1875C38.1087 24.6618 38.4944 25.0475 38.9687 25.0475C39.4431 25.0475 39.8287 24.6618 39.8287 24.1875C39.8287 23.7131 39.4431 23.3275 38.9687 23.3275ZM38.9687 17.9525C38.4944 17.9525 38.1087 18.3381 38.1087 18.8125C38.1087 19.2868 38.4944 19.6725 38.9687 19.6725C39.4431 19.6725 39.8287 19.2868 39.8287 18.8125C39.8287 18.3381 39.4431 17.9525 38.9687 17.9525ZM36.2812 7.20249C35.8069 7.20249 35.4212 7.58814 35.4212 8.06249C35.4212 8.53683 35.8069 8.92249 36.2812 8.92249C36.7556 8.92249 37.1412 8.53683 37.1412 8.06249C37.1412 7.58814 36.7556 7.20249 36.2812 7.20249ZM16.125 38.1087V37.1412C17.3397 37.1412 18.3287 36.1536 18.3287 34.9375H19.2962C19.2962 36.687 17.8732 38.1087 16.125 38.1087ZM12.0937 35.4212C9.97464 35.4212 8.25061 33.6972 8.25061 31.5781H9.21811C9.21811 33.1637 10.5081 34.4537 12.0937 34.4537V35.4212ZM16.125 32.7337C14.3768 32.7337 12.9537 31.3107 12.9537 29.5625C12.9537 27.8143 14.3768 26.3912 16.125 26.3912V27.3601C14.9102 27.3601 13.9212 28.3477 13.9212 29.5638C13.9212 30.7799 14.9102 31.7676 16.125 31.7676V32.7337ZM8.50861 22.3963C7.9093 21.797 7.57874 21.0015 7.57874 20.1562C7.57874 18.2884 8.88217 16.985 10.75 16.985C11.6113 16.985 12.3867 17.3048 12.9927 17.9108L12.3074 18.5948C11.8881 18.1742 11.3493 17.9525 10.75 17.9525C9.41161 17.9525 8.54624 18.8179 8.54624 20.1562C8.54624 20.7435 8.77602 21.2957 9.19124 21.7123L8.50861 22.3963ZM16.125 17.2806V16.3131C17.3397 16.3131 18.3287 15.3241 18.3287 14.1094C18.3287 12.8946 17.3397 11.9056 16.125 11.9056V10.9381C17.8732 10.9381 19.2962 12.3611 19.2962 14.1094C19.2962 15.8576 17.8732 17.2806 16.125 17.2806ZM19.2962 8.06249H18.3287C18.3287 6.84774 17.3397 5.85874 16.125 5.85874C14.9102 5.85874 13.9212 6.84774 13.9212 8.06249H12.9537C12.9537 6.31427 14.3768 4.89124 16.125 4.89124C17.8732 4.89124 19.2962 6.31427 19.2962 8.06249Z" fill="#09CE69"/>
</g>
<defs>
<clipPath id="clip0_4_133">
<rect width="43" height="43" fill="white"/>
</clipPath>
</defs>
</svg>
