<svg width="26" height="26" viewBox="0 0 26 26" fill="none" xmlns="http://www.w3.org/2000/svg">
<g clip-path="url(#clip0_9_417)">
<path d="M13.8984 1.79688H12.1014C11.8688 1.79688 11.6802 1.98543 11.6802 2.21805C11.6802 2.45063 11.8688 2.63923 12.1014 2.63923H13.8984C14.131 2.63923 14.3196 2.45068 14.3196 2.21805C14.3196 1.98543 14.131 1.79688 13.8984 1.79688Z" fill="#09CE69"/>
<path d="M10.309 1.79688H10.3045C10.0719 1.79688 9.88556 1.98543 9.88556 2.21805C9.88556 2.45063 10.0764 2.63923 10.309 2.63923C10.5416 2.63923 10.7302 2.45068 10.7302 2.21805C10.7302 1.98543 10.5416 1.79688 10.309 1.79688Z" fill="#09CE69"/>
<path d="M18.8401 12.1297C18.6075 12.1297 18.4189 12.3182 18.4189 12.5509V21.5638H7.58095V12.5508C7.58095 12.3182 7.3924 12.1296 7.15977 12.1296C6.92719 12.1296 6.73859 12.3182 6.73859 12.5508V21.985C6.73859 22.2175 6.92714 22.4061 7.15977 22.4061H18.8401C19.0727 22.4061 19.2613 22.2176 19.2613 21.985V12.5508C19.2613 12.3182 19.0727 12.1297 18.8401 12.1297Z" fill="#09CE69"/>
<path d="M13.8984 23.3606H12.1014C11.8688 23.3606 11.6802 23.5491 11.6802 23.7818C11.6802 24.0144 11.8688 24.203 12.1014 24.203H13.8984C14.131 24.203 14.3196 24.0144 14.3196 23.7818C14.3196 23.5491 14.131 23.3606 13.8984 23.3606Z" fill="#09CE69"/>
<path d="M16.1447 13.4773H10.8874L10.804 13.1992C10.6927 12.8281 10.3577 12.5789 9.97032 12.5789H8.95682C8.72425 12.5789 8.53564 12.7674 8.53564 13C8.53564 13.2326 8.7242 13.4212 8.95682 13.4212H9.97032C9.98261 13.4212 9.99368 13.4294 9.99723 13.4412L11.0568 16.9732C11.2255 17.5357 11.7335 17.9136 12.3208 17.9136H15.2462C15.9739 17.9136 16.5659 17.3216 16.5659 16.594V13.8985C16.5658 13.6659 16.3773 13.4773 16.1447 13.4773ZM15.7235 16.5939C15.7235 16.8571 15.5094 17.0713 15.2462 17.0713H12.3207C12.1083 17.0713 11.9245 16.9345 11.8635 16.7311L11.1401 14.3196H15.7235V16.5939Z" fill="#09CE69"/>
<path d="M11.203 18.4189C10.723 18.4189 10.3326 18.8094 10.3326 19.2893C10.3326 19.7693 10.723 20.1597 11.203 20.1597C11.6829 20.1597 12.0734 19.7693 12.0734 19.2893C12.0734 18.8094 11.683 18.4189 11.203 18.4189Z" fill="#09CE69"/>
<path d="M15.6954 18.4189C15.2154 18.4189 14.825 18.8094 14.825 19.2893C14.825 19.7693 15.2155 20.1597 15.6954 20.1597C16.1753 20.1597 16.5658 19.7693 16.5658 19.2893C16.5658 18.8094 16.1753 18.4189 15.6954 18.4189Z" fill="#09CE69"/>
<path d="M22.7485 7.77882L22.7489 7.77852L21.0583 5.87661V1.76891C21.0583 0.793559 20.2647 0 19.2893 0H6.71052C5.73517 0 4.94161 0.793559 4.94161 1.76891V5.87666L3.25105 7.77857L3.25141 7.77888C3.18524 7.85327 3.14471 7.95092 3.14471 8.05838V9.40611C3.14471 10.3815 3.93827 11.175 4.91363 11.175C4.92307 11.175 4.93232 11.1744 4.94171 11.1742V24.2311C4.94171 25.2065 5.73527 26 6.71062 26H19.2894C20.2648 26 21.0584 25.2065 21.0584 24.2311V11.1742C21.0678 11.1743 21.077 11.175 21.0864 11.175C22.0618 11.175 22.8554 10.3814 22.8554 9.40606V8.05832C22.8552 7.95087 22.8147 7.85322 22.7485 7.77882ZM21.4962 7.63715H19.9701L17.9378 4.4363H18.651L21.4962 7.63715ZM14.7688 8.4795H16.622V9.40606C16.622 9.91697 16.2063 10.3326 15.6954 10.3326C15.1845 10.3326 14.7688 9.91697 14.7688 9.40606V8.4795ZM14.7187 7.63715L14.3123 4.4363H15.2126L16.432 7.63715H14.7187ZM16.114 4.4363H16.94L18.9723 7.63715H17.3334L16.114 4.4363ZM17.4643 8.4795H19.3174V9.40606C19.3174 9.91697 18.9017 10.3326 18.3908 10.3326C17.8799 10.3326 17.4643 9.91697 17.4643 9.40606V8.4795ZM5.78397 1.76891C5.78397 1.258 6.19961 0.842359 6.71052 0.842359H19.2893C19.8003 0.842359 20.2159 1.258 20.2159 1.76891V4.92903L19.1548 3.73537C19.0749 3.64538 18.9604 3.59399 18.8401 3.59399H7.15973C7.03943 3.59399 6.92487 3.64543 6.84499 3.73537L5.78397 4.92898V1.76891ZM13.9265 8.4795V9.40606C13.9265 9.91697 13.5108 10.3326 12.9999 10.3326C12.489 10.3326 12.0734 9.91697 12.0734 9.40606V8.4795H13.9265ZM12.1303 7.63715L12.5367 4.4363H13.4632L13.8696 7.63715H12.1303ZM7.02755 7.63715L9.05982 4.4363H9.88582L8.66646 7.63715H7.02755ZM8.53555 8.4795V9.40606C8.53555 9.91697 8.11991 10.3326 7.609 10.3326C7.09809 10.3326 6.68244 9.91697 6.68244 9.40606V8.4795H8.53555ZM9.37791 8.4795H11.231V9.40606C11.231 9.91697 10.8154 10.3326 10.3045 10.3326C9.79355 10.3326 9.37791 9.91697 9.37791 9.40606V8.4795ZM9.56788 7.63715L10.7872 4.4363H11.6876L11.2811 7.63715H9.56788ZM7.34889 4.4363H8.06207L6.0298 7.63715H4.50367L7.34889 4.4363ZM4.91353 10.3326C4.40262 10.3326 3.98697 9.91697 3.98697 9.40606V8.4795H5.84008V9.40606C5.84008 9.91697 5.42444 10.3326 4.91353 10.3326ZM20.2159 24.2311C20.2159 24.742 19.8003 25.1576 19.2893 25.1576H6.71052C6.19961 25.1576 5.78397 24.742 5.78397 24.2311V10.9449C5.96531 10.842 6.12705 10.7084 6.26131 10.5506C6.58601 10.9323 7.06975 11.175 7.60905 11.175C8.14834 11.175 8.63209 10.9324 8.95678 10.5506C9.28148 10.9323 9.76522 11.175 10.3045 11.175C10.8438 11.175 11.3276 10.9324 11.6522 10.5506C11.9769 10.9323 12.4607 11.175 13 11.175C13.5393 11.175 14.023 10.9324 14.3477 10.5506C14.6724 10.9323 15.1561 11.175 15.6955 11.175C16.2348 11.175 16.7185 10.9324 17.0432 10.5506C17.3679 10.9323 17.8516 11.175 18.3909 11.175C18.9302 11.175 19.414 10.9324 19.7387 10.5506C19.8729 10.7084 20.0347 10.8419 20.216 10.9449V24.2311H20.2159ZM22.0129 9.40606C22.0129 9.91697 21.5972 10.3326 21.0863 10.3326C20.5754 10.3326 20.1598 9.91697 20.1598 9.40606V8.4795H22.0129V9.40606Z" fill="#09CE69"/>
</g>
<defs>
<clipPath id="clip0_9_417">
<rect width="26" height="26" fill="white"/>
</clipPath>
</defs>
</svg>
