<svg width="217" height="217" viewBox="0 0 217 217" fill="none" xmlns="http://www.w3.org/2000/svg">
<path d="M91.8012 173.091C88.792 173.091 86.3338 170.633 86.3338 167.624C86.3338 164.615 88.792 162.157 91.8012 162.157C94.8104 162.157 97.2686 164.615 97.2686 167.624C97.2898 170.633 94.8104 173.091 91.8012 173.091Z" fill="#ADADAE"/>
<path d="M127.254 156.117C127.254 157.198 126.364 158.088 125.284 158.088H58.3188C57.238 158.088 56.348 157.198 56.348 156.117V55.1825C56.348 54.1017 57.238 53.2117 58.3188 53.2117H125.262C126.343 53.2117 127.233 54.1017 127.233 55.1825V156.117H127.254Z" fill="#191919"/>
<path d="M63.9556 75.0599C61.0736 75.0599 58.7214 77.4122 58.7214 80.2942C58.7214 83.1762 61.0736 85.5285 63.9556 85.5285C66.8377 85.5285 69.1899 83.1762 69.1899 80.2942C69.1899 77.4122 66.8377 75.0599 63.9556 75.0599ZM170.379 122.444C164.149 122.444 159.063 127.53 159.063 133.76C159.063 139.99 164.149 145.076 170.379 145.076C176.609 145.076 181.695 139.99 181.695 133.76C181.695 127.53 176.609 122.444 170.379 122.444Z" fill="black"/>
<path d="M170.379 118.206C161.796 118.206 154.824 125.178 154.824 133.76C154.824 142.343 161.796 149.315 170.379 149.315C178.961 149.315 185.933 142.343 185.933 133.76C185.933 125.178 178.961 118.206 170.379 118.206ZM159.063 133.76C159.063 127.53 164.149 122.444 170.379 122.444C176.609 122.444 181.695 127.53 181.695 133.76C181.695 139.99 176.609 145.076 170.379 145.076C164.127 145.076 159.063 139.99 159.063 133.76Z" fill="#ADADAE"/>
<path d="M77.497 115.705C75.0811 115.705 73.1315 117.655 73.1315 120.071C73.1315 122.486 75.0811 124.436 77.497 124.436C79.9128 124.436 81.8624 122.486 81.8624 120.071C81.8624 117.655 79.8916 115.705 77.497 115.705ZM27.1886 89.2794C24.3065 89.2794 21.9543 91.6317 21.9543 94.5137C21.9543 97.3957 24.3065 99.748 27.1886 99.748C30.0706 99.748 32.4228 97.3957 32.4228 94.5137C32.4228 91.6317 30.0706 89.2794 27.1886 89.2794Z" fill="#0C0C0C"/>
<path d="M40.5604 87.8595C40.1789 86.7576 38.9922 86.1642 37.869 86.5245L33.9062 87.8595C32.1897 86.1219 29.8163 85.0411 27.1674 85.0411C21.9543 85.0411 17.6948 89.2794 17.6948 94.5136C17.6948 99.7479 21.9331 103.986 27.1674 103.986C32.4017 103.986 36.6399 99.7479 36.6399 94.5136C36.6399 93.4965 36.4704 92.5005 36.1737 91.5892L39.2253 90.572C40.3272 90.1694 40.9206 88.9827 40.5604 87.8595ZM27.1886 99.7267C24.3065 99.7267 21.9543 97.3745 21.9543 94.4925C21.9543 91.6104 24.3065 89.2582 27.1886 89.2582C30.0706 89.2582 32.4229 91.6104 32.4229 94.4925C32.4229 97.3745 30.0706 99.7267 27.1886 99.7267ZM69.8045 90.572L69.0628 88.241C71.6693 86.5457 73.407 83.6213 73.407 80.2942C73.407 75.0811 69.1688 70.8217 63.9345 70.8217C58.7002 70.8217 54.4619 75.0599 54.4619 80.2942C54.4619 85.5285 58.7002 89.7668 63.9345 89.7668C64.3159 89.7668 64.6974 89.7456 65.0576 89.7032L65.7357 91.8647C66.0112 92.776 66.8589 93.3481 67.7489 93.3481C67.9608 93.3481 68.1728 93.3057 68.3847 93.2422C69.5502 92.8819 70.1647 91.674 69.8045 90.572ZM65.8841 85.147C65.7993 85.1682 65.7146 85.2106 65.651 85.2318C65.1212 85.4225 64.549 85.5285 63.9557 85.5285C61.0736 85.5285 58.7214 83.1762 58.7214 80.2942C58.7214 77.4122 61.0736 75.0599 63.9557 75.0599C66.8377 75.0599 69.1899 77.4122 69.1899 80.2942C69.1899 82.4769 67.8125 84.363 65.8841 85.147ZM71.627 105.448C71.8389 105.448 72.0508 105.406 72.2627 105.342C73.3858 104.982 74.0004 103.795 73.6401 102.694L72.3687 98.646C72.0084 97.5228 70.8217 96.9083 69.7197 97.2685C68.5966 97.6288 67.982 98.8155 68.3423 99.9175L69.6138 103.965C69.8893 104.876 70.7157 105.448 71.627 105.448ZM92.8184 107.059L91.123 108.352C90.1906 109.051 89.9999 110.386 90.7204 111.318C91.1442 111.869 91.78 112.145 92.4157 112.145C92.8607 112.145 93.3058 111.997 93.6872 111.721L95.3825 110.428C96.3149 109.729 96.5057 108.394 95.7852 107.462C95.0858 106.529 93.7508 106.36 92.8184 107.059ZM112.654 94.6408C111.954 93.7084 110.619 93.5177 109.687 94.2382L107.991 95.5308C107.059 96.2301 106.868 97.5652 107.589 98.4976C108.013 99.0486 108.648 99.3241 109.284 99.3241C109.729 99.3241 110.174 99.1758 110.556 98.9003L112.251 97.6076C113.183 96.9083 113.374 95.5732 112.654 94.6408ZM101.253 100.638L99.5572 101.931C98.6248 102.63 98.4341 103.965 99.1546 104.897C99.5784 105.448 100.214 105.724 100.85 105.724C101.295 105.724 101.74 105.576 102.121 105.3L103.817 104.007C104.749 103.308 104.94 101.973 104.219 101.041C103.52 100.129 102.185 99.9386 101.253 100.638ZM84.3842 113.48L83.6213 114.052C82.0531 112.463 79.8916 111.467 77.497 111.467C77.1367 111.467 76.7977 111.488 76.4586 111.53L76.2255 110.767C75.8652 109.644 74.6785 109.03 73.5554 109.39C72.4322 109.75 71.8177 110.937 72.1779 112.06L72.4958 113.099C70.3131 114.667 68.8933 117.21 68.8933 120.092C68.8933 124.839 72.7501 128.695 77.497 128.695C82.2439 128.695 86.1007 124.839 86.1007 120.092C86.1007 119.286 85.9947 118.502 85.7828 117.761L86.9483 116.871C87.8808 116.171 88.0715 114.836 87.351 113.904C86.6517 112.95 85.3166 112.759 84.3842 113.48ZM73.1315 120.07C73.1315 117.655 75.0812 115.705 77.497 115.705C79.9128 115.705 81.8624 117.655 81.8624 120.07C81.8624 122.486 79.9128 124.436 77.497 124.436C75.0812 124.436 73.1315 122.486 73.1315 120.07Z" fill="#ADADAE"/>
<path d="M183.051 87.902H141.326V45.5191C141.326 36.6611 134.12 29.4561 125.262 29.4561H58.3188C49.4608 29.4561 42.2557 36.6611 42.2557 45.5191V169.574C42.2557 178.432 49.4608 185.637 58.3188 185.637H183.03C191.888 185.637 199.093 178.516 199.093 169.764V103.796C199.114 95.0223 191.909 87.902 183.051 87.902ZM125.284 177.16H58.3188C54.1441 177.16 50.7322 173.77 50.7322 169.574V86.6729L51.262 86.5033C52.364 86.1219 52.9573 84.9352 52.5971 83.812C52.3216 82.9855 51.5587 82.4346 50.7534 82.371V45.5403C50.7534 41.3656 54.1441 37.9538 58.34 37.9538H125.284C129.458 37.9538 132.87 41.3444 132.87 45.5403V92.1826C132.467 92.225 132.044 92.3945 131.705 92.67C130.815 93.4329 130.709 94.768 131.472 95.658L132.849 97.2686L132.87 97.2897V169.595C132.849 173.77 129.458 177.16 125.284 177.16ZM190.638 169.764C190.638 173.854 187.247 177.16 183.051 177.16H139.439C140.647 174.893 141.347 172.329 141.347 169.574V106.063C141.834 106.063 142.322 105.893 142.703 105.554C143.593 104.792 143.699 103.456 142.936 102.566L141.559 100.956C141.495 100.871 141.41 100.808 141.326 100.723V96.3785H183.051C187.226 96.3785 190.638 99.7056 190.638 103.774V169.764Z" fill="#ADADAE"/>
<path d="M155.312 117.083C154.549 116.192 153.214 116.087 152.324 116.849C151.434 117.612 151.328 118.947 152.091 119.837L153.468 121.448C153.892 121.935 154.485 122.19 155.079 122.19C155.566 122.19 156.054 122.02 156.456 121.681C157.346 120.918 157.452 119.583 156.689 118.693L155.312 117.083ZM148.425 109.03C147.662 108.14 146.327 108.034 145.437 108.797C144.547 109.56 144.441 110.895 145.204 111.785L146.581 113.395C147.005 113.883 147.598 114.137 148.192 114.137C148.679 114.137 149.166 113.967 149.569 113.628C150.459 112.865 150.565 111.53 149.802 110.64L148.425 109.03Z" fill="#ADADAE"/>
<path d="M104.622 47.2568H78.9803C77.8148 47.2568 76.8612 46.3032 76.8612 45.1377C76.8612 43.9722 77.8148 43.0186 78.9803 43.0186H104.622C105.787 43.0186 106.741 43.9722 106.741 45.1377C106.741 46.3032 105.787 47.2568 104.622 47.2568Z" fill="#ADADAE" fill-opacity="0.866667"/>
<path d="M126.576 67.8337C119.456 67.8337 113.671 73.619 113.671 80.7393C113.671 87.8596 119.456 93.6449 126.576 93.6449C133.697 93.6449 139.482 87.8596 139.482 80.7393C139.482 73.619 133.697 67.8337 126.576 67.8337Z" fill="black"/>
<path d="M126.576 63.5955C117.125 63.5955 109.432 71.2879 109.432 80.7393C109.432 90.1907 117.125 97.8832 126.576 97.8832C136.028 97.8832 143.72 90.1907 143.72 80.7393C143.72 71.2879 136.028 63.5955 126.576 63.5955ZM113.692 80.7393C113.692 73.619 119.477 67.8337 126.597 67.8337C133.718 67.8337 139.503 73.619 139.503 80.7393C139.503 87.8596 133.718 93.6449 126.597 93.6449C119.477 93.6449 113.692 87.8596 113.692 80.7393Z" fill="#ADADAE"/>
</svg>
