<svg width="26" height="26" viewBox="0 0 26 26" fill="none" xmlns="http://www.w3.org/2000/svg">
<g clip-path="url(#clip0_9_442)">
<path d="M13 13.3183C14.6293 13.3183 18.46 11.3575 18.46 6.65903C18.46 6.00359 18.4441 5.37051 18.3901 4.77221C18.3014 3.59513 18.0603 2.55191 17.46 1.75242C16.6901 0.66435 15.3428 0 13 0C10.6578 0 9.31056 0.664147 8.54051 1.75181C7.93992 2.5515 7.69868 3.595 7.61001 4.77249C7.55598 5.37065 7.54004 6.00373 7.54004 6.65903C7.54004 11.3575 11.3707 13.3183 13 13.3183ZM14.7822 2.4396C14.6233 2.8415 14.5436 3.04249 14.3845 3.44433C13.3573 3.15412 12.6426 3.15412 11.6155 3.44433C11.4564 3.04249 11.3768 2.8415 11.2176 2.4396C12.5022 2.05072 13.4978 2.05079 14.7822 2.4396ZM8.35236 5.64039C8.41524 5.77803 8.68248 6.30697 9.09613 6.35654C9.57165 6.41361 10.3609 4.67253 13 4.66828C15.6391 4.67253 16.4284 6.41361 16.9039 6.35654C17.3176 6.3069 17.5848 5.77796 17.6477 5.64039C17.6605 5.97753 17.6652 6.31878 17.6652 6.6591C17.6652 8.95572 16.6511 10.3787 15.8004 11.168C14.7285 12.1626 13.5384 12.5236 13 12.5236C12.4616 12.5236 11.2716 12.1626 10.1997 11.168C9.34899 10.3787 8.33487 8.95572 8.33487 6.6591C8.33487 6.31878 8.33953 5.97753 8.35236 5.64039Z" fill="#09CE69"/>
<path d="M23.1366 20.1478C22.8579 18.4145 22.2841 16.1818 21.133 15.3883C20.3469 14.8463 17.6044 13.3811 16.4333 12.7554L16.4135 12.7449C16.2796 12.6734 16.1162 12.6877 15.9968 12.7814C15.3834 13.263 14.7113 13.5876 13.9995 13.7461C13.8738 13.7741 13.7706 13.8635 13.7248 13.9839L13.3348 15.012H12.6652L12.2752 13.9839C12.2295 13.8635 12.1263 13.7741 12.0005 13.7461C11.2887 13.5876 10.6167 13.263 10.0032 12.7814C9.88381 12.6877 9.72037 12.6733 9.58651 12.7449C8.42935 13.3633 5.65336 14.8584 4.87042 15.386C3.54537 16.2786 2.96604 19.5092 2.86339 20.1478C2.85319 20.2111 2.85907 20.2759 2.88048 20.3364C2.91256 20.427 3.48013 21.8949 6.58407 22.8356V23.1481C6.58407 23.3389 6.73893 23.4937 6.92979 23.4937L11.2057 23.4972C11.1234 23.9683 10.9477 24.744 10.5957 25.5105C10.5465 25.6174 10.555 25.742 10.6189 25.8411C10.6824 25.9404 10.7921 26.0002 10.9098 26.0002H15.0899C15.2077 26.0002 15.3174 25.9403 15.3809 25.8411C15.4444 25.742 15.4531 25.6174 15.4042 25.5105C15.0524 24.7441 14.8763 23.9683 14.7939 23.4972L19.0702 23.4937C19.2609 23.4937 19.4159 23.3389 19.4159 23.1481V22.8356C22.5198 21.8949 23.0874 20.427 23.1195 20.3364C23.1409 20.2759 23.1468 20.2111 23.1366 20.1478ZM18.2947 22.5359H17.6905V22.4166C17.6905 22.2402 17.5474 22.097 17.3709 22.097C17.1943 22.097 17.0513 22.2401 17.0513 22.4166V22.5359H16.6481V22.4166C16.6481 22.2402 16.5051 22.097 16.3285 22.097C16.1521 22.097 16.0089 22.2401 16.0089 22.4166V22.5359H7.70503V15.9697H18.2947V22.5359Z" fill="#09CE69"/>
<path d="M11.6443 19.6602C11.4003 19.6602 11.1713 19.7554 10.9991 19.9281C10.7641 20.1638 10.6764 20.5089 10.7703 20.8286C10.7758 20.8472 10.7906 20.8616 10.8095 20.8663C10.8282 20.871 10.8482 20.8656 10.8619 20.8519L11.4355 20.2765C11.47 20.2904 11.5568 20.3381 11.7172 20.4981C11.881 20.6614 11.9277 20.7482 11.9408 20.7783L11.3661 21.3547C11.3524 21.3684 11.347 21.3884 11.3518 21.4071C11.3567 21.4259 11.3711 21.4407 11.3897 21.4461C11.4725 21.4702 11.5582 21.4823 11.6445 21.4823C11.8884 21.4823 12.1175 21.3872 12.2896 21.2146C12.5597 20.9436 12.6229 20.544 12.4809 20.2121L13.0175 19.6755L13.2445 19.9025L13.0897 20.0573C13.056 20.091 13.0375 20.1357 13.0375 20.1833C13.0375 20.2309 13.056 20.2757 13.0897 20.3093L14.183 21.4026C14.2166 21.4363 14.2614 21.4549 14.309 21.4549C14.3567 21.4549 14.4014 21.4363 14.4351 21.4026L15.0274 20.8104C15.0611 20.7767 15.0796 20.7319 15.0796 20.6843C15.0796 20.6367 15.061 20.5919 15.0274 20.5582L13.9341 19.4648C13.9004 19.4312 13.8556 19.4126 13.808 19.4126C13.7604 19.4126 13.7157 19.4312 13.682 19.4648L13.5272 19.6196L13.3002 19.3926L13.9961 18.6968C14.1083 18.745 14.23 18.7708 14.3557 18.7708C14.5996 18.7708 14.8287 18.6757 15.0009 18.503C15.2358 18.2672 15.3236 17.9222 15.2298 17.6024C15.2244 17.5838 15.2095 17.5695 15.1907 17.5647C15.1719 17.5599 15.152 17.5654 15.1383 17.5791L14.5645 18.1546C14.5301 18.1407 14.4434 18.0931 14.2828 17.933C14.1191 17.7697 14.0724 17.6828 14.0593 17.6528L14.634 17.0764C14.6477 17.0627 14.6531 17.0427 14.6482 17.024C14.6433 17.0052 14.629 16.9903 14.6103 16.9849C14.5276 16.961 14.4419 16.9487 14.3556 16.9487C14.1117 16.9487 13.8826 17.0439 13.7105 17.2166C13.4405 17.4875 13.3772 17.8871 13.5192 18.2191L12.8229 18.9154L12.1101 18.2025C12.1095 18.2015 12.1095 18.2004 12.1089 18.1994L11.7833 17.6412C11.7777 17.6315 11.77 17.6233 11.7609 17.6169L11.2116 17.2358C11.1811 17.2147 11.1401 17.2185 11.1141 17.2445L10.8694 17.4892C10.8432 17.5154 10.8396 17.5564 10.8607 17.5868L11.2419 18.1361C11.2482 18.1452 11.2566 18.1529 11.2661 18.1585L11.8243 18.484C11.8253 18.4846 11.8265 18.4848 11.8276 18.4854L12.5402 19.1981L12.004 19.7343C11.8917 19.686 11.77 19.6602 11.6443 19.6602ZM13.4786 20.1711C13.5175 20.1322 13.5807 20.1322 13.6196 20.1712L14.3211 20.8727C14.36 20.9117 14.3601 20.9748 14.3211 21.0138C14.2822 21.0527 14.2189 21.0527 14.18 21.0138L13.4786 20.3123C13.4395 20.2732 13.4395 20.2101 13.4786 20.1711ZM13.7959 19.8539C13.8349 19.8148 13.898 19.8148 13.9371 19.8539L14.6385 20.5553C14.6774 20.5942 14.6774 20.6574 14.6385 20.6964C14.5996 20.7353 14.5364 20.7353 14.4974 20.6963L13.7959 19.9949C13.757 19.9558 13.757 19.8928 13.7959 19.8539Z" fill="#09CE69"/>
</g>
<defs>
<clipPath id="clip0_9_442">
<rect width="26" height="26" fill="white"/>
</clipPath>
</defs>
</svg>
