<svg width="191" height="191" viewBox="0 0 191 191" fill="none" xmlns="http://www.w3.org/2000/svg">
<g clip-path="url(#clip0_4_186)">
<path d="M148.98 7.75929C147.98 7.87866 147.085 8.40093 146.473 9.19179L135.252 23.278C133.073 20.5473 129.776 18.7418 126.06 18.7418H110.78C105.766 18.7418 101.484 22.0246 99.7975 26.5012H62.7912C56.5837 17.4287 46.1534 11.4599 34.38 11.4599C15.4441 11.4599 0 26.9041 0 45.8399C0 57.6133 5.96875 68.0437 15.0412 74.2512C15.086 74.281 15.1159 74.3407 15.1606 74.3705C15.1606 74.4153 15.1606 74.4451 15.1606 74.4899L56.345 152.561H26.2625C19.9655 152.561 15.0412 157.993 15.0412 164.26V187.18C15.0263 188.254 15.4591 189.299 16.2201 190.06C16.9811 190.821 18.0256 191.254 19.1 191.239H148.98C150.054 191.254 151.099 190.821 151.86 190.06C152.621 189.299 153.054 188.254 153.039 187.18V164.26C153.039 157.993 148.115 152.561 141.818 152.561H114.242L64.8206 65.1787H99.7975C101.484 69.6552 105.766 72.938 110.78 72.938H126.06C129.776 72.938 133.073 71.1325 135.252 68.4018L146.473 82.488C147.592 83.8907 149.547 84.2936 151.129 83.443L188.971 62.7912C190.552 61.9406 191.284 60.0903 190.731 58.3892C190.164 56.6732 188.478 55.6287 186.702 55.8674C186.24 55.942 185.792 56.1062 185.389 56.3449L150.412 75.5643L137.878 59.6874V32.1118L150.412 16.2349L185.389 35.3349C186.553 36.1258 188.06 36.1855 189.284 35.4991C190.508 34.8126 191.239 33.4995 191.164 32.0969C191.104 30.6942 190.254 29.4557 188.971 28.8887L151.129 8.23679C150.472 7.86374 149.726 7.6996 148.98 7.75929ZM34.38 19.0999C43.8554 19.0999 52.1967 23.9943 56.9419 31.3955C56.9866 31.4701 57.0165 31.5597 57.0612 31.6343C57.1359 31.7984 57.2105 31.9626 57.3 32.1118C57.3895 32.3655 57.5089 32.6042 57.6581 32.828C57.7178 32.9325 57.8372 32.9623 57.8969 33.0668C57.9715 33.1862 58.0461 33.3055 58.1356 33.4249C60.0605 37.1255 61.12 41.3633 61.12 45.8399C61.12 50.2717 60.0307 54.4648 58.1356 58.1355C58.1058 58.1803 58.0461 58.2101 58.0163 58.2549C57.9715 58.3295 57.9267 58.4191 57.8969 58.4937C57.882 58.5235 57.9118 58.5832 57.8969 58.613C57.8073 58.6876 57.7327 58.7623 57.6581 58.8518C57.4045 59.1801 57.2105 59.5382 57.0612 59.9262C57.0165 60.0455 56.9717 60.1649 56.9419 60.2843C52.1967 67.6855 43.8554 72.5799 34.38 72.5799C19.5775 72.5799 7.64 60.6424 7.64 45.8399C7.64 31.0374 19.5775 19.0999 34.38 19.0999ZM34.38 24.233C34.1263 24.233 33.9174 24.3375 33.6637 24.3524C33.425 24.4121 33.1713 24.4867 32.9475 24.5912C21.8009 25.382 12.7731 34.4993 12.7731 45.8399C12.7731 57.6879 22.532 67.4468 34.38 67.4468C46.228 67.4468 55.9869 57.6879 55.9869 45.8399C55.9869 34.5441 47.0188 25.4417 35.9319 24.5912C35.8871 24.5912 35.8573 24.4718 35.8125 24.4718C35.5439 24.3972 35.2604 24.3673 34.9769 24.3524C34.768 24.3524 34.5889 24.233 34.38 24.233ZM110.78 27.098H126.06C128.015 27.098 129.522 28.6051 129.522 30.5599V61.1199C129.522 63.0747 128.015 64.5818 126.06 64.5818H110.78C108.825 64.5818 107.318 63.0747 107.318 61.1199V30.5599C107.318 28.6051 108.825 27.098 110.78 27.098ZM34.1413 31.873C34.2159 31.873 34.3054 31.873 34.38 31.873C42.0797 31.873 48.3469 38.1402 48.3469 45.8399C48.3469 53.5396 42.0797 59.8068 34.38 59.8068C26.6803 59.8068 20.4131 53.5396 20.4131 45.8399C20.4131 38.2148 26.546 32.0073 34.1413 31.873ZM66.85 34.6187H98.9619V57.0612H66.85C68.0736 53.5247 68.76 49.7793 68.76 45.8399C68.76 41.9005 68.0736 38.1551 66.85 34.6187ZM58.7325 69.9537L105.408 152.561H64.8206L26.1431 79.1455C28.7992 79.8021 31.5299 80.2199 34.38 80.2199C43.9151 80.2199 52.4952 76.2507 58.7325 69.9537ZM26.2625 160.679H61.4781C62.4331 161.082 63.5075 161.082 64.4625 160.679H141.818C143.474 160.679 144.921 162.111 144.921 164.26V183.121H23.1588V164.26C23.1588 162.111 24.6062 160.679 26.2625 160.679Z" fill="#ADADAE"/>
</g>
<defs>
<clipPath id="clip0_4_186">
<rect width="191" height="191" fill="white"/>
</clipPath>
</defs>
</svg>
