<svg width="26" height="26" viewBox="0 0 26 26" fill="none" xmlns="http://www.w3.org/2000/svg">
<g clip-path="url(#clip0_9_447)">
<path d="M6.39844 16.9609C5.07812 16.9609 4.01172 18.0273 4.01172 19.3477C4.01172 20.668 5.07812 21.7344 6.39844 21.7344C7.71875 21.7344 8.78516 20.668 8.78516 19.3477C8.78516 18.0273 7.71875 16.9609 6.39844 16.9609ZM6.39844 20.2516C5.90078 20.2516 5.48438 19.8352 5.48438 19.3375C5.48438 18.8398 5.90078 18.4234 6.39844 18.4234C6.89609 18.4234 7.3125 18.8398 7.3125 19.3375C7.3125 19.8453 6.90625 20.2516 6.39844 20.2516ZM21.4094 16.8594C20.0891 16.8594 19.0227 17.9258 19.0227 19.2461C19.0227 20.5664 20.0891 21.6328 21.4094 21.6328C22.7297 21.6328 23.7961 20.5664 23.7961 19.2461C23.7961 17.9258 22.7297 16.8594 21.4094 16.8594ZM21.4094 20.15C20.9117 20.15 20.4953 19.7336 20.4953 19.2359C20.4953 18.7383 20.9117 18.3219 21.4094 18.3219C21.907 18.3219 22.3234 18.7383 22.3234 19.2359C22.3234 19.7437 21.9172 20.15 21.4094 20.15ZM-0.0507812 17.9867C-0.0507812 18.4539 0.325 18.8195 0.782031 18.8195H3.07734C3.16875 18.8195 3.25 18.7484 3.27031 18.6672C3.53437 17.1742 4.83437 16.1383 6.39844 16.1383C7.9625 16.1383 9.27266 17.1742 9.52656 18.6672C9.54688 18.7586 9.61797 18.8195 9.71953 18.8195H10.0547H13.193V15.1328H-0.0507812V17.9867ZM25.7563 17.1133H25.2484V14.8789C25.2484 14.1172 24.6289 13.4977 23.857 13.4977H21.3891C21.3383 13.4977 21.2875 13.4672 21.2469 13.4367L17.3875 9.67891C17.2148 9.50625 16.9711 9.40469 16.7172 9.39453H13.9242V18.8195H18.0781C18.1695 18.8195 18.2508 18.7484 18.2711 18.6672C18.5352 17.1742 19.8352 16.0367 21.3992 16.0367C22.9633 16.0367 24.2734 17.1742 24.5273 18.6672C24.5477 18.7586 24.6187 18.8195 24.7203 18.8195H25.0453C25.543 18.8195 25.9289 18.4234 25.9289 17.9359V17.2961C25.9492 17.2047 25.8578 17.1133 25.7563 17.1133ZM19.4086 13.5078H15.2039C15.1023 13.5078 15.0109 13.4164 15.0109 13.3148V10.6336C15.0109 10.532 15.1023 10.4406 15.2039 10.4406H16.6156C16.6664 10.4406 16.7172 10.4711 16.768 10.5016L19.5609 13.1727C19.6523 13.3047 19.5711 13.5078 19.4086 13.5078Z" fill="#09CE69"/>
<path d="M5.87032 13.7618H1.73672V9.62822H3.33126V10.9485H4.27579V9.62822H5.87032V13.7618ZM11.2633 13.7618H7.13985V9.62822H8.73438V10.9485H9.67891V9.62822H11.2734V13.7618H11.2633ZM8.60235 8.35869H4.46876V4.2251H6.06329V5.54541H7.00782V4.2251H8.60235V8.35869Z" fill="#09CE69"/>
</g>
<defs>
<clipPath id="clip0_9_447">
<rect width="26" height="26" fill="white"/>
</clipPath>
</defs>
</svg>
