<svg width="297" height="734" viewBox="0 0 297 734" fill="none" xmlns="http://www.w3.org/2000/svg">
<path d="M257.472 87.4605C234.91 45.3309 148.005 34.026 172.945 120.416C177.034 134.581 180.383 159.434 181.674 190.036C182.857 218.068 139.813 238.885 130.511 276.464C115.922 335.399 201.739 364.443 192.57 395.612C180.561 436.436 131.035 459.705 105.131 484.464C80.7455 507.772 67.6313 541.908 65.1797 575.622C60.8785 634.767 89.3946 692.609 147.44 688.386C176.497 686.273 212.954 668.606 256.398 627.765C275.822 609.504 293.063 594.301 308.514 581.818C348.284 549.69 344.616 614.351 396.18 610.238C425.561 607.895 449.233 549.501 475.982 575.712C495.002 594.349 516.999 617.097 547.153 639.54C600.109 678.952 660.048 678.217 660.294 612.46C660.41 581.419 647.224 535.889 613.723 473.252C592.284 433.169 632.663 429.614 630.529 375.071C628.394 320.528 587.404 300.391 612.017 274.62L612.51 274.104C631.271 254.463 651.281 233.515 659.079 197.12C665.797 165.77 661.066 136.148 648.717 114.478C635.502 91.2867 613.563 77.2046 587.598 79.8631C561.545 82.5306 531.44 102.052 502.028 146.136C482.635 175.201 459.626 116.113 419.776 127.445C379.926 138.777 381.66 198.355 355.178 184.332C309.177 159.974 283.896 136.802 257.472 87.4605Z" stroke="white" stroke-width="3"/>
<path d="M189.435 137.933C167.049 59.2487 246.468 69.6048 267.153 108.227C292.468 155.441 316.494 176.044 359.462 197.388C383.708 210.035 382.337 155.609 418.809 145.102C455.281 134.594 476.437 188.179 494.261 161.717C521.383 121.571 549.079 104.005 572.966 101.899C596.677 99.6306 616.71 112.691 628.683 134.054C639.867 154.033 643.997 181.261 637.478 209.992C628.567 244.288 612.335 266.975 595.344 285.991C573.023 309.795 610.11 328.347 611.734 378.043C613.358 427.74 576.189 430.89 595.329 467.086C625.393 523.762 637.085 564.871 636.716 592.855C636.298 652.528 581.413 653.018 532.814 617.119C504.962 596.66 484.465 576.061 466.697 559.506C442.146 535.832 420.368 589.171 393.366 591.556C346.149 595.581 349.21 536.953 312.773 566.32C298.462 577.813 282.549 591.714 264.674 608.342C224.341 645.559 190.775 660.832 164.396 661.936C111.599 665.544 85.7074 612.684 89.7132 558.655C92.0359 527.766 104.098 496.508 126.455 475.141C150.966 451.713 196.498 430.059 207.327 391.442C215.645 362.701 137.423 335.852 150.559 281.807C158.886 247.191 197.915 227.825 196.823 201.939C195.635 173.761 192.85 150.906 189.435 137.933Z" stroke="white" stroke-width="3"/>
<path d="M206.657 156.184C186.876 85.4653 258.69 94.8209 277.457 129.804C301.615 174.727 324.347 192.689 364.213 210.941C386.184 222.166 385.189 173.07 418.231 163.414C451.273 153.757 470.532 201.661 486.77 177.883C511.568 141.8 536.818 126.24 558.505 124.696C579.926 122.819 598.021 134.811 608.728 154.273C618.726 172.492 622.243 197.237 615.925 223.255C605.976 255.023 593.823 279.325 578.765 297.505C558.763 319.27 591.888 336.166 592.987 380.855C594.086 425.543 560.183 428.287 576.987 460.473C603.556 511 613.729 547.552 613.101 572.388C612.498 625.785 562.749 626.04 518.588 593.783C493.084 575.38 474.122 557.001 457.636 542.586C435.324 521.531 415.461 569.645 390.877 572.07C348.076 576.004 350.539 523.6 317.482 550.118C304.331 560.586 289.765 573.143 273.462 588.09C236.293 621.571 205.664 634.408 182.003 634.507C134.532 637.502 111.315 589.801 115.032 541.064C117.229 513.098 128.229 484.82 148.528 465.457C171.615 443.432 213.09 423.455 222.733 387.17C230.193 360.951 159.688 336.402 171.366 287.419C178.712 255.878 213.673 238.02 212.68 214.364C211.602 188.703 209.391 167.922 206.657 156.184Z" stroke="white" stroke-width="3"/>
<path d="M223.144 173.703C205.917 110.69 270.241 119.097 287.13 150.573C310.179 193.367 331.658 208.76 368.49 223.997C388.224 233.847 387.592 189.904 417.254 181.072C446.915 172.241 464.321 214.641 478.989 193.466C501.496 161.322 524.334 147.717 543.855 146.736C563.019 145.248 579.207 156.218 588.671 173.852C597.503 190.38 600.418 212.73 594.298 236.13C583.303 265.481 575.216 291.472 562.072 308.876C544.363 328.674 573.583 343.984 574.17 383.827C574.757 423.669 544.066 426.007 558.57 454.306C581.699 498.873 590.378 531.005 589.496 552.783C588.722 600.097 544.029 600.106 504.228 571.363C481.028 554.942 463.566 538.713 448.332 526.38C428.217 507.862 410.25 550.921 388.047 553.387C349.595 557.233 351.45 510.863 321.728 534.619C309.718 544.097 296.48 555.351 281.728 568.666C247.672 598.522 219.936 608.966 198.955 608.054C156.737 610.435 136.146 567.716 139.567 524.096C141.635 498.953 151.582 473.554 169.851 456.133C191.546 435.438 229.024 417.078 237.486 383C244.094 359.21 181.19 336.855 191.413 292.762C197.783 264.185 228.726 247.778 227.824 226.268C226.849 203.031 225.203 184.249 223.144 173.703Z" stroke="white" stroke-width="3"/>
<path d="M240.258 191.142C225.603 135.834 282.326 143.307 297.313 171.277C319.225 211.951 339.416 224.778 373.154 237.005C390.618 245.483 390.341 206.695 416.568 198.695C442.796 190.695 458.326 227.593 471.396 209.025C491.563 180.827 511.948 169.184 529.268 168.769C546.142 167.676 560.397 177.628 568.604 193.435C576.26 208.273 578.572 228.229 572.666 249.006C560.649 275.937 556.649 303.624 545.446 320.251C530.067 338.077 555.332 351.807 555.416 386.801C555.499 421.795 528.075 423.721 540.257 448.132C559.916 486.741 567.091 514.451 565.963 533.169C565.028 574.396 525.47 574.15 490.092 548.912C469.232 534.471 453.297 520.389 439.339 510.136C421.454 494.152 405.423 532.149 385.64 534.652C351.606 538.402 352.839 498.07 326.509 519.056C315.664 527.541 303.779 537.49 290.606 549.168C259.728 575.39 234.936 583.431 216.672 581.504C179.781 583.26 161.843 545.52 164.952 507.021C166.882 484.703 175.753 462.188 191.957 446.711C212.217 427.352 245.629 410.616 252.888 378.746C258.627 357.387 203.428 337.213 212.171 298.014C217.546 272.403 244.413 257.455 243.599 238.091C242.723 217.279 241.641 200.497 240.258 191.142Z" stroke="white" stroke-width="3"/>
<path d="M257.48 209.49C245.412 162.014 294.528 168.519 307.606 192.918C328.365 231.374 347.262 241.602 377.897 250.785C393.088 257.868 393.175 224.32 415.969 217.162C438.763 210.004 452.406 241.315 463.882 225.391C481.716 201.195 499.648 191.534 514.766 191.682C529.35 190.981 541.668 199.889 548.615 213.831C555.089 226.945 556.794 244.462 551.097 262.572C538.057 287.027 538.132 316.347 528.865 332.162C515.811 347.982 537.118 360.095 536.688 390.163C536.259 420.232 512.103 421.748 521.959 442.216C538.136 474.776 543.801 498.001 542.421 513.619C541.314 548.669 506.895 548.178 475.95 526.512C457.436 514.088 443.034 502.187 430.356 494.041C414.706 480.63 400.603 513.486 383.241 516.026C353.625 519.681 354.249 485.475 331.306 503.653C321.625 511.129 311.091 519.752 299.495 529.772C271.793 552.311 249.943 557.938 234.398 555.005C202.835 556.144 187.56 523.471 190.368 490.176C192.166 470.732 199.967 451.147 214.107 437.646C232.935 419.659 262.283 404.576 268.347 374.983C273.223 356.101 225.737 338.168 233.009 303.946C237.397 281.356 260.192 267.893 259.471 250.718C258.7 232.377 258.186 217.631 257.48 209.49Z" stroke="white" stroke-width="3"/>
<path d="M273.952 227.01C264.443 187.245 306.056 192.803 317.253 213.693C336.904 250.028 354.546 257.683 382.144 263.846C395.093 269.552 395.544 241.161 414.951 234.828C434.358 228.495 446.145 254.298 456.049 240.98C471.586 220.727 487.103 213.024 500.051 213.735C512.375 213.425 522.783 221.313 528.483 233.426C533.79 244.848 534.893 259.97 529.394 275.459C515.303 297.498 519.456 328.523 512.106 343.566C501.351 357.418 518.745 367.945 517.803 393.163C516.861 418.381 495.924 419.491 503.474 436.067C516.205 462.662 520.373 481.461 518.739 494.018C517.461 522.978 488.108 522.24 461.53 504.09C445.322 493.65 432.422 483.9 420.998 477.839C407.55 466.968 395.347 494.764 380.369 497.347C355.11 500.914 355.124 472.748 335.523 488.161C326.984 494.646 317.781 501.966 307.738 510.352C283.154 529.262 264.203 532.49 251.343 528.543C225.042 529.065 212.397 501.377 214.909 473.203C216.577 456.584 223.323 439.88 235.429 428.321C252.862 411.664 278.206 398.197 283.087 370.808C287.108 354.355 247.236 338.615 253.051 309.286C256.459 289.661 275.229 277.649 274.598 262.621C273.93 246.705 273.982 233.959 273.952 227.01Z" stroke="white" stroke-width="3"/>
<path d="M291.042 244.451C284.104 212.402 318.107 217.025 327.4 234.406C345.905 268.634 362.248 273.719 386.737 276.865C397.412 281.197 398.216 257.967 414.184 252.466C430.152 246.964 440.059 267.257 448.362 256.549C461.556 240.247 474.615 234.51 485.359 235.791C495.39 235.877 503.863 242.747 508.307 253.032C512.437 262.763 512.939 275.489 507.658 288.353C492.563 307.97 500.792 340.718 495.385 354.988C486.96 366.869 500.4 375.815 498.956 396.178C497.512 416.541 479.848 417.237 485.079 429.918C494.339 450.544 497.005 464.912 495.125 474.403C493.688 497.267 469.476 496.271 447.329 481.632C433.468 473.173 422.101 465.573 411.959 461.596C400.744 453.263 390.481 475.991 377.928 478.612C357.094 482.085 356.489 459.965 340.285 472.605C332.914 478.096 325.068 484.108 316.607 490.856C295.212 506.127 279.207 506.944 269.064 501.974C248.094 501.871 238.104 479.168 240.302 456.119C241.831 442.328 247.499 428.51 257.536 418.898C273.523 403.574 294.792 391.733 298.468 366.545C301.619 352.525 269.459 338.966 273.792 314.534C276.206 297.876 290.898 287.323 290.354 274.442C289.785 260.951 290.399 250.206 291.042 244.451Z" stroke="white" stroke-width="3"/>
<path d="M307.721 261.942C303.342 237.621 329.913 241.284 337.34 255.15C354.781 287.271 369.914 289.768 391.428 289.873C399.884 292.821 401.063 274.756 413.68 270.074C426.298 265.392 434.365 280.161 441.119 272.061C452.052 259.705 462.727 255.928 471.325 257.774C479.117 258.25 485.695 264.097 488.899 272.551C491.865 280.588 491.759 290.917 486.657 301.158C470.452 318.368 482.795 352.86 479.294 366.368C473.149 376.283 482.696 383.638 480.726 399.143C478.757 414.648 464.269 414.94 467.196 423.717C473.016 438.36 474.182 448.289 472.038 454.711C470.416 471.473 451.218 470.234 433.392 459.124C421.807 452.657 411.916 447.217 403.002 445.337C393.966 439.553 385.573 457.217 375.375 459.887C358.851 463.281 357.638 447.215 344.736 457.092L344.375 457.353C338.237 461.776 331.818 466.402 325.022 471.417C306.687 483.059 293.543 481.468 286.068 475.477C270.318 474.761 262.946 457.053 264.861 439.132C266.269 428.169 270.899 417.235 278.927 409.564C293.568 395.557 310.886 385.324 313.391 362.327C315.699 350.737 291.091 339.381 293.981 319.846C295.424 306.154 306.12 297.046 305.67 286.312C305.206 275.248 306.394 266.504 307.721 261.942Z" stroke="white" stroke-width="3"/>
<path d="M324.893 280.321C323.099 263.835 342.033 266.533 347.542 276.823C363.801 306.698 377.614 306.603 395.991 303.676C402.163 305.23 403.7 292.41 412.868 288.574C422.036 284.739 428.208 293.922 433.357 288.468C441.941 280.117 450.149 278.322 456.534 280.727C462.026 281.594 466.661 286.394 468.602 292.98C470.385 299.289 469.676 307.175 464.794 314.745C447.603 329.465 463.988 365.544 462.425 378.227C458.612 386.129 464.194 391.864 461.719 402.441C459.244 413.017 448.045 412.9 448.647 417.736C450.986 426.333 450.645 431.781 448.255 435.105C446.468 445.689 432.431 444.206 419.06 436.668C409.837 432.216 401.493 428.956 393.874 429.177C387.085 425.965 380.632 438.482 372.869 441.184C360.785 444.477 358.965 434.537 349.467 441.601C344.393 445.091 339.218 448.473 333.875 451.927C318.745 459.882 308.561 455.886 303.811 448.899C293.405 447.566 288.702 434.929 290.31 422.217C291.581 414.132 295.134 406.132 301.088 400.439C314.269 387.82 327.499 379.248 328.805 358.549C330.246 349.441 313.377 340.33 314.793 325.78C315.247 315.115 321.86 307.499 321.503 298.96C321.143 290.372 322.894 283.668 324.893 280.321Z" stroke="white" stroke-width="3"/>
</svg>
