<svg width="278" height="784" viewBox="0 0 278 784" fill="none" xmlns="http://www.w3.org/2000/svg">
<path d="M-238.988 123.736C-265.408 83.9691 -352.36 81.0168 -319.251 164.598C-313.822 178.303 -308.076 202.714 -303.799 233.041C-299.881 260.822 -340.356 285.645 -345.859 323.927C-354.488 383.964 -266.87 404.67 -272.869 436.561C-280.727 478.33 -327.366 506.212 -350.525 533.321C-372.326 558.842 -381.931 594.062 -381.046 627.843C-379.493 687.107 -345.651 741.94 -288.728 732.197C-260.234 727.32 -225.955 706.26 -187.047 661.472C-169.652 641.448 -154.113 624.674 -140.075 610.778C-103.943 575.011 -101.223 639.703 -50.6917 630.688C-21.8994 625.551 -4.24456 565.186 24.7487 588.713C45.3645 605.442 69.3244 625.978 101.312 645.431C157.487 679.593 216.622 673.139 210.415 607.684C207.485 576.785 189.993 532.739 150.757 473.61C125.647 435.772 165.186 428.379 157.726 374.31C150.267 320.241 107.802 304.116 129.587 276.123L130.024 275.562C146.629 254.227 164.339 231.472 168.472 194.513C172.033 162.676 164.453 133.652 150.13 113.268C134.801 91.4533 111.748 79.5354 86.361 84.6596C60.8882 89.8011 33.0653 112.1 8.33659 158.774C-7.96749 189.547 -36.4922 132.948 -74.744 148.028C-112.996 163.108 -105.439 222.227 -132.973 210.802C-180.802 190.955 -208.047 170.311 -238.988 123.736Z" stroke="white" stroke-width="3"/>
<path d="M-301.244 180.455C-331.075 104.297 -251.61 107.02 -227.389 143.476C-197.751 188.04 -171.998 206.247 -127.46 223.383C-102.27 233.653 -108.963 179.627 -73.9675 165.69C-38.9716 151.753 -12.8175 203.053 2.19386 175.019C25.0459 132.483 50.6806 112.36 74.0698 107.984C97.2681 103.463 118.338 114.546 132.26 134.66C145.267 153.472 152.018 180.172 148.397 209.383C142.96 244.36 129.151 268.485 114.233 289.029C94.5195 314.847 132.974 329.766 139.453 379.061C145.932 428.357 109.526 435.04 131.982 469.23C167.239 522.756 182.822 562.546 185.202 590.426C190.643 649.845 136.476 655.572 84.9493 624.49C55.4305 606.791 33.163 588.251 13.9881 573.474C-12.5861 552.261 -28.8655 607.415 -55.3037 612.366C-101.55 620.879 -104.277 562.249 -137.389 594.95C-150.397 607.752 -164.753 623.103 -180.778 641.356C-216.967 682.24 -248.625 700.641 -274.574 704.258C-326.372 712.889 -357.133 662.762 -358.476 608.618C-359.212 577.659 -350.363 545.405 -330.376 522.009C-308.462 496.356 -265.61 470.463 -258.702 431.003C-253.305 401.61 -333.206 382.362 -325.531 327.329C-320.702 292.089 -284.049 269.093 -287.667 243.439C-291.605 215.514 -296.597 193.038 -301.244 180.455Z" stroke="white" stroke-width="3"/>
<path d="M-282.441 196.971C-308.918 128.491 -237.064 130.944 -215.093 163.963C-186.824 206.357 -162.608 222.061 -121.438 236.416C-98.6343 245.488 -104.433 196.73 -72.7414 183.967C-41.0501 171.203 -17.327 217.031 -3.62077 191.821C17.3357 153.549 40.7503 135.655 62.0214 132.049C82.9965 128.136 102.047 138.341 114.532 156.684C126.196 173.859 132.097 198.145 128.408 224.639C121.698 257.2 112.077 282.541 98.9862 302.069C81.3635 325.636 115.742 339.286 121.211 383.649C126.68 428.012 93.4597 433.978 113.216 464.401C144.418 512.142 158.052 547.542 159.868 572.315C164.51 625.506 115.393 630.509 68.6074 602.627C41.6099 586.75 21.0766 570.273 3.37778 557.502C-20.728 538.682 -35.6284 588.455 -59.6736 593.214C-101.567 601.216 -104.274 548.835 -134.326 578.378C-146.29 590.05 -159.446 603.935 -174.084 620.364C-207.515 657.228 -236.51 672.927 -259.873 675.284C-306.47 682.796 -334.083 637.548 -335.192 588.697C-335.765 560.659 -327.674 531.47 -309.522 510.266C-288.877 486.145 -249.868 462.308 -243.903 425.281C-239.106 398.48 -311.158 380.783 -304.428 330.927C-300.265 298.841 -267.483 277.733 -270.785 254.289C-274.367 228.857 -278.589 208.39 -282.441 196.971Z" stroke="white" stroke-width="3"/>
<path d="M-264.438 212.83C-287.635 151.773 -223.272 153.997 -203.502 183.705C-176.536 224.087 -153.81 237.354 -115.932 248.999C-95.4733 256.916 -100.408 213.251 -71.9747 201.631C-43.5417 190.011 -22.1896 230.541 -9.77725 208.07C9.30097 173.936 30.5258 158.218 49.7119 155.378C68.4965 152.068 85.5628 161.439 96.6406 178.081C106.987 193.684 112.059 215.646 108.309 239.514C100.327 269.77 94.8881 296.404 83.6117 314.978C68.062 336.368 98.4263 348.813 102.915 388.403C107.403 427.992 77.3166 433.249 94.4188 460.023C121.638 502.162 133.362 533.306 134.628 555.061C138.504 602.215 94.3581 606.491 52.2236 581.689C27.6958 567.565 8.85508 553.083 -7.4029 542.265C-29.0885 525.759 -42.6121 570.32 -64.3018 574.894C-101.907 582.392 -104.624 536.074 -131.653 562.55C-142.586 573.128 -154.558 585.59 -167.824 600.247C-198.536 633.207 -224.909 646.247 -245.722 647.343C-287.191 653.743 -311.722 613.201 -312.622 569.47C-313.045 544.254 -305.711 518.031 -289.374 498.951C-269.974 476.288 -234.755 454.441 -229.739 419.723C-225.545 395.42 -289.875 379.181 -284.101 334.329C-280.613 305.286 -251.657 286.006 -254.658 264.688C-257.901 241.659 -261.369 223.127 -264.438 212.83Z" stroke="white" stroke-width="3"/>
<path d="M-245.822 228.549C-265.723 174.914 -208.96 176.934 -191.411 203.335C-165.777 241.716 -144.575 252.552 -110.049 261.498C-91.9669 268.267 -96.0454 229.697 -70.9231 219.232C-45.8008 208.768 -26.8408 244.001 -15.7517 224.277C1.40328 194.293 20.3967 180.761 37.4645 178.695C54.0256 175.996 69.0826 184.538 78.7402 199.483C87.7576 213.517 91.9999 233.154 88.2038 254.392C78.9756 282.337 77.7404 310.269 68.3047 327.883C54.8625 347.089 81.1662 358.34 84.6811 393.153C88.1961 427.966 61.2956 432.5 75.7243 455.628C98.9301 492.17 108.736 519.057 109.458 537.791C112.578 578.903 73.4794 582.434 36.0582 560.699C14.036 548.321 -3.08569 535.83 -17.8794 526.96C-37.1143 512.763 -49.2215 552.102 -68.5173 556.482C-101.769 563.463 -104.507 523.212 -128.457 546.608C-138.337 556.087 -149.101 567.12 -160.968 579.998C-188.896 609.039 -212.597 619.407 -230.826 619.233C-267.095 624.503 -288.516 588.662 -289.221 550.056C-289.504 527.664 -282.95 504.413 -268.463 487.466C-250.349 466.268 -218.986 446.426 -214.942 414.02C-211.369 392.219 -267.873 377.414 -263.082 337.574C-260.285 311.576 -235.212 294.137 -237.916 274.947C-240.823 254.321 -243.537 237.725 -245.822 228.549Z" stroke="white" stroke-width="3"/>
<path d="M-227.01 245.162C-243.588 199.072 -194.433 200.857 -179.121 223.887C-154.844 260.171 -135.175 268.544 -104.012 274.757C-88.3127 280.354 -91.517 246.964 -69.7039 237.665C-47.8908 228.366 -31.3425 258.22 -21.5691 241.279C-6.32584 215.501 10.4396 204.175 25.3877 202.879C39.7245 200.789 52.7663 208.477 60.9956 221.687C68.6767 234.118 72.08 251.386 68.2291 269.951C57.7467 295.529 60.6972 324.697 53.0945 341.319C41.7519 358.307 63.9872 368.326 66.5123 398.286C69.0373 428.247 45.3253 432.062 57.0687 451.488C76.2421 482.343 84.1165 504.912 84.2852 520.585C86.6306 555.566 52.5831 558.364 19.8908 539.76C0.384003 529.164 -15.0095 518.698 -28.3317 511.802C-45.1063 499.952 -55.8138 533.991 -72.7148 538.177C-101.611 544.641 -104.35 510.545 -125.229 530.822C-134.059 539.186 -143.618 548.772 -154.09 559.849C-179.243 584.922 -200.273 592.608 -215.917 591.173C-246.983 595.32 -265.276 564.267 -265.768 530.868C-265.899 511.349 -260.115 491.115 -247.472 476.331C-230.639 456.636 -203.129 438.826 -200.042 408.8C-197.078 389.546 -245.743 376.234 -241.917 341.487C-239.798 318.59 -218.602 303.017 -220.999 285.997C-223.56 267.82 -225.514 253.196 -227.01 245.162Z" stroke="white" stroke-width="3"/>
<path d="M-209.02 261.022C-222.314 222.362 -180.664 223.92 -167.555 243.637C-144.579 277.917 -126.402 283.85 -98.536 287.348C-85.1854 291.79 -87.5253 263.496 -68.9765 255.341C-50.4276 247.187 -36.2535 271.737 -27.7766 257.539C-14.4156 235.902 0.156203 226.756 13.0158 226.228C25.1582 224.743 36.2128 231.598 43.0323 243.107C49.3944 253.966 51.9673 268.908 48.0553 284.846C36.2985 308.121 43.4437 338.596 37.6595 354.266C28.3944 369.076 46.6089 377.891 48.1521 403.074C49.6954 428.258 29.1224 431.361 38.2068 447.134C53.391 472.382 59.3525 490.69 58.9702 503.341C60.5488 532.28 31.4811 534.348 3.44728 518.825C-13.5863 509.984 -27.285 501.514 -39.1644 496.574C-53.5152 487.04 -62.8424 515.864 -77.3837 519.864C-101.984 525.825 -104.734 497.796 -122.584 515.005C-130.382 522.273 -138.754 530.435 -147.852 539.738C-170.281 560.903 -188.684 565.924 -201.774 563.224C-227.703 566.255 -242.909 539.911 -243.192 511.636C-243.175 494.94 -238.15 477.675 -227.326 465.017C-211.739 446.777 -188.026 430.958 -185.891 403.238C-183.533 386.483 -224.462 374.627 -221.596 344.887C-220.154 325.034 -202.792 311.29 -204.889 296.397C-207.111 280.623 -208.309 267.935 -209.02 261.022Z" stroke="white" stroke-width="3"/>
<path d="M-190.428 276.746C-200.425 245.518 -166.384 246.871 -155.499 263.28C-133.863 295.572 -117.221 299.071 -92.7222 299.864C-81.752 303.155 -83.2371 279.964 -68.0039 272.965C-52.7706 265.966 -40.9936 285.212 -33.8424 273.765C-22.4089 256.284 -10.0723 249.329 0.666486 249.578C10.5834 248.705 19.627 254.732 25.026 264.542C30.0593 273.831 31.804 286.446 27.8496 299.751C14.8632 320.712 26.2042 352.513 22.2626 367.229C15.1067 379.854 29.2597 387.473 29.831 407.873C30.4023 428.274 13.0218 430.652 19.4329 442.771C30.6031 462.412 34.6462 476.454 33.7204 486.078C34.5435 508.966 10.5298 510.287 -12.783 497.834C-27.3049 490.74 -39.2784 484.263 -49.6869 481.274C-61.5824 474.053 -69.49 497.648 -81.6325 501.455C-101.872 506.899 -104.639 484.947 -119.406 499.071C-126.148 505.239 -133.309 511.97 -141.004 519.492C-160.64 536.73 -176.369 539.071 -186.875 535.094C-207.6 536.994 -219.695 515.357 -219.784 492.212C-219.627 478.343 -215.384 464.053 -206.412 453.53C-192.124 436.755 -172.276 422.942 -171.116 397.527C-169.379 383.276 -202.476 372.854 -200.593 348.13C-199.842 331.324 -186.365 319.42 -188.166 306.654C-190.051 293.285 -190.499 282.534 -190.428 276.746Z" stroke="white" stroke-width="3"/>
<path d="M-172.237 292.558C-178.948 268.776 -152.343 269.884 -143.647 282.972C-123.267 313.269 -108.074 314.309 -86.812 312.36C-78.1699 314.486 -78.7783 296.397 -66.774 290.534C-54.7697 284.671 -45.3522 298.597 -39.4754 289.892C-29.888 276.553 -19.7134 271.776 -11.0398 272.792C-3.29654 272.522 3.77521 277.711 7.76899 285.818C11.4875 293.532 12.3964 303.82 8.36079 314.498C-5.95842 333.17 9.61835 366.313 7.48438 380.088C2.38709 390.541 12.5394 396.948 12.1147 412.564C11.6899 428.18 -2.59196 429.855 1.16025 438.309C8.34534 452.324 10.4708 462.092 8.9829 468.687C9.02513 485.521 -10.06 486.122 -28.7575 476.768C-40.8356 471.439 -51.1399 466.97 -60.1294 465.95C-69.6222 461.058 -76.1803 479.436 -85.9914 483.066C-101.981 488.02 -104.755 472.15 -116.531 483.21L-116.862 483.504C-122.491 488.491 -128.378 493.707 -134.598 499.346C-151.567 512.681 -164.707 512.353 -172.679 507.105C-188.307 507.896 -197.325 490.979 -197.192 472.964C-196.877 461.921 -193.376 450.599 -186.199 442.199C-173.11 426.864 -157.007 415.028 -156.788 391.906C-155.646 380.153 -181.068 371.202 -180.129 351.488C-180.047 337.725 -170.375 327.641 -171.872 317.003C-173.416 306.038 -173.1 297.224 -172.237 292.558Z" stroke="white" stroke-width="3"/>
<path d="M-153.472 309.207C-156.861 292.973 -137.894 293.851 -131.443 303.564C-112.451 331.739 -98.8169 330.326 -80.9515 325.659C-74.7016 326.616 -74.4409 313.712 -65.7611 309.02C-57.0813 304.329 -50.0843 312.877 -45.5327 306.959C-37.8734 297.83 -29.9414 295.259 -23.3984 297.043C-17.8885 297.382 -12.839 301.715 -10.2757 308.084C-7.89526 314.192 -7.82259 322.106 -11.9025 330.105C-27.4394 346.393 -7.71527 380.73 -8.01492 393.499C-11.0065 401.726 -4.92939 406.9 -6.33694 417.661C-7.74447 428.421 -18.8184 429.374 -17.7491 434.128C-14.5955 442.46 -14.398 447.913 -16.4325 451.448C-17.1596 462.151 -31.1704 462.016 -45.1175 455.791C-54.6647 452.242 -63.2262 449.795 -70.7307 450.742C-77.7526 448.193 -82.8984 461.265 -90.3015 464.695C-101.915 469.125 -104.688 459.408 -113.377 467.344C-118.046 471.301 -122.827 475.161 -127.765 479.107C-141.931 488.468 -152.382 485.464 -157.76 478.964C-168.17 478.631 -174.055 466.506 -173.713 453.703C-173.25 445.537 -170.526 437.237 -165.203 431.004C-153.421 417.188 -141.193 407.396 -141.934 386.674C-141.404 377.474 -158.961 370.018 -158.99 355.405C-159.587 344.75 -153.801 336.54 -154.992 328.077C-156.19 319.566 -155.118 312.729 -153.472 309.207Z" stroke="white" stroke-width="3"/>
</svg>
