<svg width="26" height="26" viewBox="0 0 26 26" fill="none" xmlns="http://www.w3.org/2000/svg">
<path d="M3.10375 2.6001C2.25469 2.6001 1.56 3.31104 1.56 4.1601V12.6913C1.35281 12.8356 1.15172 12.9838 0.95875 13.1463C0.725156 13.3434 0.696719 13.6928 0.89375 13.9263C1.09078 14.1599 1.44016 14.1884 1.67375 13.9913C2.95141 12.9168 4.58656 12.2688 6.38625 12.2688C10.4467 12.2688 13.7312 15.5554 13.7312 19.6138C13.7109 19.821 13.8105 20.0221 13.9872 20.1318C14.1639 20.2435 14.3873 20.2435 14.5641 20.1318C14.7408 20.0221 14.8403 19.821 14.82 19.6138C14.82 19.4879 14.8098 19.364 14.8037 19.2401H17.0462C16.4694 19.9531 16.12 20.8549 16.12 21.8401C16.12 24.1313 17.9887 26.0001 20.28 26.0001C22.5712 26.0001 24.44 24.1313 24.44 21.8401C24.44 20.731 23.9972 19.7276 23.2862 18.9801C23.3898 18.9232 23.4812 18.8542 23.5787 18.7851C23.9423 18.521 24.2653 18.1818 24.4237 17.7451L25.935 13.6176C26.1097 13.1423 25.8944 12.6182 25.5775 12.3501C25.2606 12.082 24.8747 11.9601 24.4725 11.9601H20.8325V8.8401C20.8325 7.84885 21.0559 7.49135 21.1737 7.3776C21.2327 7.32072 21.2814 7.31869 21.3037 7.3126C21.4541 7.31869 21.5983 7.26182 21.7059 7.15822C21.8136 7.05463 21.8745 6.91041 21.8725 6.7601V5.7201C21.8745 5.57385 21.8156 5.43166 21.712 5.32807C21.6084 5.22447 21.4662 5.16557 21.32 5.1676C20.6497 5.1676 19.7641 5.28947 18.9963 5.8176C18.2284 6.34572 17.6475 7.31057 17.6475 8.7426V11.9601H14.9662L12.8212 4.04635C12.8192 4.03416 12.807 4.02604 12.805 4.01385C12.7298 3.68072 12.5917 3.35572 12.35 3.0876C12.1002 2.80932 11.7061 2.6001 11.2775 2.6001H3.10375ZM3.10375 3.6401H11.2775C11.4136 3.6401 11.4969 3.67057 11.5862 3.7701C11.6756 3.86963 11.7528 4.05041 11.7975 4.2576C11.8016 4.26775 11.8077 4.27994 11.8137 4.2901L14.0725 12.6101C14.1314 12.8396 14.3386 13.0001 14.5762 13.0001H18.005C18.1248 13.0428 18.2589 13.0428 18.3787 13.0001H20.085C20.2048 13.0428 20.3389 13.0428 20.4587 13.0001H24.4725C24.637 13.0001 24.832 13.0793 24.9112 13.1463C24.9905 13.2134 24.9783 13.1667 24.9437 13.2601L23.4487 17.3876C23.4 17.5196 23.1969 17.7695 22.9612 17.9401C22.7256 18.1107 22.4473 18.2001 22.3438 18.2001H14.69C14.0136 14.2229 10.5544 11.1801 6.38625 11.1801C5.02531 11.1801 3.74156 11.5031 2.6 12.0738V4.1601C2.6 3.8676 2.82344 3.6401 3.10375 3.6401ZM4.0625 4.6801C3.81469 4.72682 3.63594 4.94619 3.64 5.2001V9.8801C3.64 10.1665 3.87359 10.4001 4.16 10.4001H11.9112C12.0717 10.4001 12.2241 10.3249 12.3216 10.199C12.4211 10.071 12.4556 9.9065 12.415 9.7501L11.1475 5.0701C11.0886 4.84057 10.8814 4.6801 10.6437 4.6801H4.16C4.14375 4.6801 4.1275 4.6801 4.11125 4.6801C4.095 4.6801 4.07875 4.6801 4.0625 4.6801ZM4.68 5.7201H10.2537L11.245 9.3601H4.68V5.7201ZM20.7675 6.3376V6.4026C20.6517 6.4615 20.542 6.48588 20.4262 6.5976C20.0241 6.98353 19.7275 7.67416 19.7275 8.8401V11.9601H18.7525V8.7426C18.7525 7.57869 19.1242 7.04853 19.6137 6.71135C19.9489 6.47978 20.3612 6.39244 20.7675 6.3376ZM6.24 13.5201C2.80109 13.5201 0 16.3212 0 19.7601C0 23.199 2.80109 26.0001 6.24 26.0001C9.67891 26.0001 12.48 23.199 12.48 19.7601C12.48 16.3212 9.67891 13.5201 6.24 13.5201ZM6.24 14.5601C9.11625 14.5601 11.44 16.8838 11.44 19.7601C11.44 22.6363 9.11625 24.9601 6.24 24.9601C6.06125 24.9601 5.87844 24.9459 5.70375 24.9276C5.52906 24.9093 5.35234 24.8971 5.18375 24.8626C2.81125 24.3792 1.04 22.2768 1.04 19.7601C1.04 19.5793 1.05422 19.3985 1.0725 19.2238C1.33859 16.5974 3.54453 14.5601 6.24 14.5601ZM6.19125 16.9001C6.175 16.9042 6.15875 16.9103 6.1425 16.9163C6.11 16.9184 6.0775 16.9245 6.045 16.9326C6.03891 16.9387 6.03484 16.9428 6.02875 16.9488C4.56016 17.0646 3.38 18.2631 3.38 19.7601C3.38 21.3323 4.66781 22.6201 6.24 22.6201C7.81219 22.6201 9.1 21.3323 9.1 19.7601C9.1 18.2753 7.93812 17.0809 6.48375 16.9488C6.46547 16.9468 6.45328 16.9346 6.435 16.9326C6.38219 16.9123 6.32734 16.9021 6.2725 16.9001C6.26234 16.9001 6.25016 16.9001 6.24 16.9001C6.22375 16.9001 6.2075 16.9001 6.19125 16.9001ZM6.2075 17.9401C6.21766 17.9401 6.22984 17.9401 6.24 17.9401C7.24953 17.9401 8.06 18.7526 8.06 19.7601C8.06 20.7676 7.2475 21.5801 6.24 21.5801C5.2325 21.5801 4.42 20.7676 4.42 19.7601C4.42 18.7628 5.21422 17.9584 6.2075 17.9401ZM18.525 19.2401H20.2312C20.215 19.2442 20.1987 19.2503 20.1825 19.2563C20.15 19.2584 20.1175 19.2645 20.085 19.2726C20.0789 19.2787 20.0748 19.2828 20.0687 19.2888C18.7423 19.4026 17.68 20.4873 17.68 21.8401C17.68 23.2681 18.852 24.4401 20.28 24.4401C21.708 24.4401 22.88 23.2681 22.88 21.8401C22.88 20.4974 21.8339 19.4188 20.5237 19.2888C20.5055 19.2868 20.4933 19.2746 20.475 19.2726C20.4445 19.2584 20.41 19.2482 20.3775 19.2401H22.035C22.0553 19.2645 22.0756 19.2848 22.1 19.3051C22.8902 19.8718 23.4 20.792 23.4 21.8401C23.4 23.5667 22.0066 24.9601 20.28 24.9601C18.5534 24.9601 17.16 23.5667 17.16 21.8401C17.16 20.8367 17.6272 19.9409 18.3625 19.3701C18.4255 19.3376 18.4803 19.2949 18.525 19.2401ZM20.28 20.2801C21.1433 20.2801 21.84 20.9748 21.84 21.8401C21.84 22.7054 21.1433 23.4001 20.28 23.4001C19.4147 23.4001 18.72 22.7034 18.72 21.8401C18.72 20.9768 19.4147 20.2801 20.28 20.2801Z" fill="#09CE69"/>
</svg>
